<?xml version="1.0" encoding="UTF-8"?>
<svg version="1.1" xmlns="http://www.w3.org/2000/svg" width="512" height="512">
<path d="M0 0 C0.88812881 -0.0049649 1.77625763 -0.00992981 2.69129944 -0.01504517 C5.63299328 -0.02966452 8.5746332 -0.03646856 11.51635742 -0.04199219 C13.5603587 -0.047744 15.60435996 -0.05350173 17.64836121 -0.05926514 C21.93647513 -0.0697746 26.22457032 -0.07561757 30.51269531 -0.07910156 C36.00391984 -0.08458497 41.49489624 -0.10861004 46.98604298 -0.13707352 C51.20941387 -0.15570949 55.43272512 -0.16090602 59.65613365 -0.16243744 C61.68030847 -0.16546252 63.70448227 -0.17348616 65.72861671 -0.18662262 C68.56275864 -0.20370235 71.39629605 -0.20179806 74.23046875 -0.1953125 C75.0644519 -0.20452728 75.89843506 -0.21374207 76.75769043 -0.22323608 C83.08357969 -0.17795436 87.16015683 1.26186688 91.99682617 5.53613281 C97.29558863 11.55094425 98.44588346 16.44000388 98.40698242 24.33691406 C98.40375977 25.49384766 98.40053711 26.65078125 98.3972168 27.84277344 C98.38883789 29.04095703 98.38045898 30.23914063 98.37182617 31.47363281 C98.36731445 32.69115234 98.36280273 33.90867188 98.3581543 35.16308594 C98.34639195 38.16248507 98.32995443 41.1617837 98.30932617 44.16113281 C99.2297168 44.12632813 100.15010742 44.09152344 101.09838867 44.05566406 C123.84741108 43.56917784 143.60118357 53.16512336 164.12182617 61.91113281 C168.0937885 63.60026908 172.06659632 65.28740675 176.03979492 66.97363281 C177.04788208 67.40174255 178.05596924 67.82985229 179.09460449 68.27093506 C186.18661376 71.27708797 193.29889816 74.2309958 200.42260742 77.16113281 C202.37540253 77.9672614 204.32812182 78.77357367 206.28076172 79.58007812 C209.07524752 80.73427486 211.87078313 81.88527773 214.67129517 83.02478027 C236.02022242 91.71447706 252.83010533 102.14795877 262.91088867 123.56347656 C267.869477 135.75696423 268.60948512 147.55096288 268.59985352 160.57788086 C268.60584955 162.20869755 268.61265754 163.83951142 268.62020874 165.47032166 C268.63776771 169.87144606 268.64255986 174.27249254 268.64384031 178.6736486 C268.64526835 181.43188824 268.64955025 184.19010848 268.65483475 186.94834328 C268.67330242 196.59537626 268.68150956 206.24235422 268.67993164 215.8894043 C268.6787315 224.84225114 268.69981722 233.79485644 268.73141897 242.74764222 C268.75768316 250.46695756 268.76829469 258.18619451 268.76702082 265.90555412 C268.76651411 270.50137431 268.77203439 275.09697959 268.79337692 279.69275475 C268.81293103 284.0210348 268.81276826 288.34889871 268.79834366 292.6771946 C268.79627547 294.25240827 268.80083539 295.82764921 268.81306458 297.40281677 C269.01113145 324.71565885 257.65022768 340.75504886 239.13371277 359.64413452 C237.99455904 360.79975045 236.85427936 361.95425753 235.71289062 363.10766602 C234.56879682 364.26836212 233.43010082 365.43440366 232.296875 366.60571289 C219.15057755 380.18713028 205.58115901 390.84947442 185.78437805 391.66449738 C183.50674472 391.68611334 181.22883991 391.68665022 178.95117188 391.66906738 C177.68318662 391.67530735 176.41520136 391.68154731 175.1087923 391.68797636 C171.63281546 391.70449076 168.1572846 391.69650638 164.68130732 391.68403149 C160.91571367 391.6749089 157.15019196 391.68898611 153.38461304 391.69995117 C146.02504457 391.71766475 138.66564 391.71392855 131.30606532 391.70230061 C125.32061728 391.6932382 119.33521491 391.69205438 113.34976196 391.69639587 C112.06812746 391.69731527 112.06812746 391.69731527 110.76060134 391.69825324 C109.02443304 391.69953225 107.28826476 391.7008291 105.55209649 391.70214361 C89.30192308 391.71352843 73.05184019 391.70046873 56.80168164 391.67894214 C42.881984 391.66107307 28.96241984 391.66417777 15.04272461 391.68261719 C-1.15240708 391.70406107 -17.34745959 391.71242999 -33.54260349 391.70016813 C-35.27210552 391.69889404 -37.00160756 391.69763656 -38.73110962 391.69639587 C-40.0072712 391.69547022 -40.0072712 391.69547022 -41.30921382 391.69452587 C-47.28203888 391.69108351 -53.25481339 391.69687719 -59.22763062 391.70631409 C-66.51430918 391.71757465 -73.80081555 391.71440927 -81.08747458 391.69319111 C-84.79969102 391.68273491 -88.51162118 391.678465 -92.22383499 391.69178772 C-96.26030844 391.70605424 -100.29606968 391.68893141 -104.33251953 391.66906738 C-106.0663163 391.68245171 -106.0663163 391.68245171 -107.83513927 391.69610643 C-133.19264244 391.45545008 -148.20981387 375.82799388 -165.0234375 359.12353516 C-166.26085702 357.89768031 -167.50274205 356.67631689 -168.74902344 355.45947266 C-183.67667314 340.88225565 -193.56452833 326.13132209 -193.95137024 304.67486572 C-193.97342213 301.72518981 -193.97055232 298.77590719 -193.96533203 295.82617188 C-193.96968649 294.19225839 -193.97487208 292.55834694 -193.9808197 290.92443848 C-193.99414405 286.51098499 -193.99479557 282.09761749 -193.9922564 277.68414783 C-193.99118191 273.98679034 -193.99608239 270.28944991 -194.00086182 266.59209609 C-194.01193498 257.86086342 -194.01240721 249.12967378 -194.00634766 240.3984375 C-194.00031342 231.42232182 -194.01260995 222.44636312 -194.03391773 213.47027421 C-194.05159419 205.73657434 -194.05752547 198.00292416 -194.05427998 190.26920485 C-194.05247611 185.66229845 -194.05501279 181.05550395 -194.06899452 176.44861603 C-194.08166657 172.11137841 -194.07954116 167.7743834 -194.06658363 163.43714905 C-194.06423831 161.85626388 -194.06687804 160.27536113 -194.07520676 158.69449615 C-194.17906174 137.42822486 -188.98591892 118.44402874 -174.30786133 102.58691406 C-165.03225314 93.80342013 -153.8798351 88.52350492 -142.12817383 83.84863281 C-140.25214881 83.08727155 -138.37615372 82.32583465 -136.50093079 81.5625 C-135.14105177 81.00910389 -133.78076046 80.45672002 -132.42008972 79.90527344 C-123.81620117 76.41385814 -115.25855073 72.81189829 -106.69689941 69.21847534 C-103.88601164 68.03942046 -101.0741558 66.86270582 -98.26196289 65.68676758 C-90.53158295 62.45355595 -82.80331724 59.216795 -75.09692383 55.92675781 C-60.69397447 49.79588249 -46.740453 43.89802997 -30.81567383 44.09863281 C-30.12731445 44.10314453 -29.43895508 44.10765625 -28.72973633 44.11230469 C-27.05001048 44.12396945 -25.37033008 44.14190011 -23.69067383 44.16113281 C-23.7142395 43.05040405 -23.7142395 43.05040405 -23.73828125 41.91723633 C-23.80114922 38.51944809 -23.83982823 35.12178277 -23.87817383 31.72363281 C-23.90331055 30.55896484 -23.92844727 29.39429687 -23.9543457 28.19433594 C-24.0237938 19.97631154 -23.73208048 12.74843297 -18.25317383 6.28613281 C-12.00778267 1.10702795 -8.14263492 0.01083537 0 0 Z " fill="#191A1A" transform="translate(218.690673828125,57.8388671875)"/>
<path d="M0 0 C0.88812881 -0.0049649 1.77625763 -0.00992981 2.69129944 -0.01504517 C5.63299328 -0.02966452 8.5746332 -0.03646856 11.51635742 -0.04199219 C13.5603587 -0.047744 15.60435996 -0.05350173 17.64836121 -0.05926514 C21.93647513 -0.0697746 26.22457032 -0.07561757 30.51269531 -0.07910156 C36.00391984 -0.08458497 41.49489624 -0.10861004 46.98604298 -0.13707352 C51.20941387 -0.15570949 55.43272512 -0.16090602 59.65613365 -0.16243744 C61.68030847 -0.16546252 63.70448227 -0.17348616 65.72861671 -0.18662262 C68.56275864 -0.20370235 71.39629605 -0.20179806 74.23046875 -0.1953125 C75.0644519 -0.20452728 75.89843506 -0.21374207 76.75769043 -0.22323608 C83.08357969 -0.17795436 87.16015683 1.26186688 91.99682617 5.53613281 C97.29558863 11.55094425 98.44588346 16.44000388 98.40698242 24.33691406 C98.40375977 25.49384766 98.40053711 26.65078125 98.3972168 27.84277344 C98.38883789 29.04095703 98.38045898 30.23914063 98.37182617 31.47363281 C98.36731445 32.69115234 98.36280273 33.90867188 98.3581543 35.16308594 C98.34639195 38.16248507 98.32995443 41.1617837 98.30932617 44.16113281 C99.2297168 44.12632813 100.15010742 44.09152344 101.09838867 44.05566406 C123.84741108 43.56917784 143.60118357 53.16512336 164.12182617 61.91113281 C168.0937885 63.60026908 172.06659632 65.28740675 176.03979492 66.97363281 C177.04788208 67.40174255 178.05596924 67.82985229 179.09460449 68.27093506 C186.18661376 71.27708797 193.29889816 74.2309958 200.42260742 77.16113281 C202.37540253 77.9672614 204.32812182 78.77357367 206.28076172 79.58007812 C209.07524752 80.73427486 211.87078313 81.88527773 214.67129517 83.02478027 C236.02022242 91.71447706 252.83010533 102.14795877 262.91088867 123.56347656 C267.869477 135.75696423 268.60948512 147.55096288 268.59985352 160.57788086 C268.60584955 162.20869755 268.61265754 163.83951142 268.62020874 165.47032166 C268.63776771 169.87144606 268.64255986 174.27249254 268.64384031 178.6736486 C268.64526835 181.43188824 268.64955025 184.19010848 268.65483475 186.94834328 C268.67330242 196.59537626 268.68150956 206.24235422 268.67993164 215.8894043 C268.6787315 224.84225114 268.69981722 233.79485644 268.73141897 242.74764222 C268.75768316 250.46695756 268.76829469 258.18619451 268.76702082 265.90555412 C268.76651411 270.50137431 268.77203439 275.09697959 268.79337692 279.69275475 C268.81293103 284.0210348 268.81276826 288.34889871 268.79834366 292.6771946 C268.79627547 294.25240827 268.80083539 295.82764921 268.81306458 297.40281677 C269.01113145 324.71565885 257.65022768 340.75504886 239.13371277 359.64413452 C237.99455904 360.79975045 236.85427936 361.95425753 235.71289062 363.10766602 C234.56879682 364.26836212 233.43010082 365.43440366 232.296875 366.60571289 C219.15057755 380.18713028 205.58115901 390.84947442 185.78437805 391.66449738 C183.50674472 391.68611334 181.22883991 391.68665022 178.95117188 391.66906738 C177.68318662 391.67530735 176.41520136 391.68154731 175.1087923 391.68797636 C171.63281546 391.70449076 168.1572846 391.69650638 164.68130732 391.68403149 C160.91571367 391.6749089 157.15019196 391.68898611 153.38461304 391.69995117 C146.02504457 391.71766475 138.66564 391.71392855 131.30606532 391.70230061 C125.32061728 391.6932382 119.33521491 391.69205438 113.34976196 391.69639587 C112.06812746 391.69731527 112.06812746 391.69731527 110.76060134 391.69825324 C109.02443304 391.69953225 107.28826476 391.7008291 105.55209649 391.70214361 C89.30192308 391.71352843 73.05184019 391.70046873 56.80168164 391.67894214 C42.881984 391.66107307 28.96241984 391.66417777 15.04272461 391.68261719 C-1.15240708 391.70406107 -17.34745959 391.71242999 -33.54260349 391.70016813 C-35.27210552 391.69889404 -37.00160756 391.69763656 -38.73110962 391.69639587 C-40.0072712 391.69547022 -40.0072712 391.69547022 -41.30921382 391.69452587 C-47.28203888 391.69108351 -53.25481339 391.69687719 -59.22763062 391.70631409 C-66.51430918 391.71757465 -73.80081555 391.71440927 -81.08747458 391.69319111 C-84.79969102 391.68273491 -88.51162118 391.678465 -92.22383499 391.69178772 C-96.26030844 391.70605424 -100.29606968 391.68893141 -104.33251953 391.66906738 C-106.0663163 391.68245171 -106.0663163 391.68245171 -107.83513927 391.69610643 C-133.19264244 391.45545008 -148.20981387 375.82799388 -165.0234375 359.12353516 C-166.26085702 357.89768031 -167.50274205 356.67631689 -168.74902344 355.45947266 C-183.67667314 340.88225565 -193.56452833 326.13132209 -193.95137024 304.67486572 C-193.97342213 301.72518981 -193.97055232 298.77590719 -193.96533203 295.82617188 C-193.96968649 294.19225839 -193.97487208 292.55834694 -193.9808197 290.92443848 C-193.99414405 286.51098499 -193.99479557 282.09761749 -193.9922564 277.68414783 C-193.99118191 273.98679034 -193.99608239 270.28944991 -194.00086182 266.59209609 C-194.01193498 257.86086342 -194.01240721 249.12967378 -194.00634766 240.3984375 C-194.00031342 231.42232182 -194.01260995 222.44636312 -194.03391773 213.47027421 C-194.05159419 205.73657434 -194.05752547 198.00292416 -194.05427998 190.26920485 C-194.05247611 185.66229845 -194.05501279 181.05550395 -194.06899452 176.44861603 C-194.08166657 172.11137841 -194.07954116 167.7743834 -194.06658363 163.43714905 C-194.06423831 161.85626388 -194.06687804 160.27536113 -194.07520676 158.69449615 C-194.17906174 137.42822486 -188.98591892 118.44402874 -174.30786133 102.58691406 C-165.03225314 93.80342013 -153.8798351 88.52350492 -142.12817383 83.84863281 C-140.25214881 83.08727155 -138.37615372 82.32583465 -136.50093079 81.5625 C-135.14105177 81.00910389 -133.78076046 80.45672002 -132.42008972 79.90527344 C-123.81620117 76.41385814 -115.25855073 72.81189829 -106.69689941 69.21847534 C-103.88601164 68.03942046 -101.0741558 66.86270582 -98.26196289 65.68676758 C-90.53158295 62.45355595 -82.80331724 59.216795 -75.09692383 55.92675781 C-60.69397447 49.79588249 -46.740453 43.89802997 -30.81567383 44.09863281 C-30.12731445 44.10314453 -29.43895508 44.10765625 -28.72973633 44.11230469 C-27.05001048 44.12396945 -25.37033008 44.14190011 -23.69067383 44.16113281 C-23.7142395 43.05040405 -23.7142395 43.05040405 -23.73828125 41.91723633 C-23.80114922 38.51944809 -23.83982823 35.12178277 -23.87817383 31.72363281 C-23.90331055 30.55896484 -23.92844727 29.39429687 -23.9543457 28.19433594 C-24.0237938 19.97631154 -23.73208048 12.74843297 -18.25317383 6.28613281 C-12.00778267 1.10702795 -8.14263492 0.01083537 0 0 Z M18.30932617 41.16113281 C18.30932617 55.68113281 18.30932617 70.20113281 18.30932617 85.16113281 C14.5994043 85.12632812 10.88948242 85.09152344 7.06713867 85.05566406 C3.44963347 85.03222677 -0.16786308 85.01403391 -3.78540039 84.99633789 C-6.28771794 84.98130847 -8.7900094 84.96087932 -11.29223633 84.93481445 C-14.90167708 84.89817403 -18.51076766 84.88134735 -22.12036133 84.86816406 C-23.7819075 84.84493828 -23.7819075 84.84493828 -25.47702026 84.82124329 C-35.99337207 84.81899597 -44.45088984 87.86447626 -53.99926758 91.97753906 C-54.86795471 92.34643753 -55.73664185 92.715336 -56.63165283 93.09541321 C-59.46588258 94.30005333 -62.29700843 95.5118106 -65.12817383 96.72363281 C-68.12715954 98.00083223 -71.12692049 99.27619745 -74.12678528 100.55133057 C-76.19033006 101.4284897 -78.25363139 102.30622177 -80.31669617 103.18450928 C-87.48624272 106.23415897 -94.6694447 109.24953422 -101.86254883 112.24316406 C-102.8373671 112.64920364 -103.81218536 113.05524323 -104.81654358 113.47358704 C-108.58553402 115.04302558 -112.35467498 116.61206072 -116.12643433 118.17483521 C-137.35098906 125.6801546 -137.35098906 125.6801546 -151.04151845 142.23702323 C-152.0619011 145.26145791 -152.06865444 148.08724368 -152.07162476 151.26454163 C-152.07630473 151.9441589 -152.0809847 152.62377617 -152.08580649 153.3239879 C-152.09769368 155.58248768 -152.0883245 157.84037357 -152.07885742 160.09887695 C-152.08292589 161.72562512 -152.08826932 163.35237052 -152.0947876 164.97911072 C-152.10843316 169.38398654 -152.10317427 173.78865093 -152.09365034 178.19353032 C-152.08604073 182.80850486 -152.09310285 187.42346162 -152.09780884 192.03843689 C-152.10326205 199.78648113 -152.09608561 207.5344395 -152.08178711 215.2824707 C-152.06545567 224.23540215 -152.07075443 233.18812867 -152.08726633 242.14105517 C-152.1008867 249.83466248 -152.10279833 257.52820816 -152.09495032 265.22182363 C-152.09027758 269.81397863 -152.0896381 274.40603734 -152.09955978 278.99818611 C-152.10823539 283.31485512 -152.10219674 287.63126022 -152.08487701 291.94790077 C-152.08091559 293.53052584 -152.08204034 295.11317318 -152.08866501 296.69578934 C-152.09688438 298.85906036 -152.08655535 301.02148997 -152.07162476 303.18470764 C-152.07049368 304.39422624 -152.0693626 305.60374483 -152.06819725 306.8499155 C-151.47218907 312.07743913 -149.26996642 315.95854095 -145.58374023 319.64038086 C-144.97946198 320.25088791 -144.37518372 320.86139496 -143.75259399 321.49040222 C-143.10567596 322.1281105 -142.45875793 322.76581879 -141.79223633 323.42285156 C-141.12026215 324.09532425 -140.44828796 324.76779694 -139.75595093 325.46064758 C-138.33902356 326.87524268 -136.91842205 328.28616603 -135.49438477 329.69360352 C-133.3210609 331.84330429 -131.16139338 334.00604502 -129.00317383 336.17089844 C-127.621152 337.54734381 -126.23836485 338.92302128 -124.85473633 340.29785156 C-124.21186676 340.94163254 -123.56899719 341.58541351 -122.90664673 342.248703 C-121.99077286 343.15027885 -121.99077286 343.15027885 -121.05639648 344.07006836 C-120.52583649 344.59602097 -119.99527649 345.12197357 -119.44863892 345.66386414 C-115.58950948 348.95070622 -112.52672116 350.53563308 -107.42539406 350.54144955 C-106.37822043 350.54988949 -105.3310468 350.55832943 -104.25214064 350.56702513 C-102.5360589 350.55801006 -102.5360589 350.55801006 -100.78530884 350.54881287 C-98.95483586 350.55689117 -98.95483586 350.55689117 -97.08738363 350.56513268 C-93.70295363 350.57696806 -90.31901575 350.57533902 -86.93460512 350.56796587 C-83.28351327 350.56323941 -79.63247444 350.57573946 -75.98139954 350.58598328 C-68.8295196 350.60318737 -61.67772745 350.6040079 -54.52583219 350.59877037 C-48.71269147 350.59473015 -42.89957671 350.59617047 -37.08643723 350.60151863 C-36.25930272 350.60226705 -35.43216822 350.60301548 -34.57996904 350.60378658 C-32.89967382 350.60531805 -31.21937861 350.60685639 -29.53908341 350.60840154 C-13.7779954 350.62213261 1.98304298 350.61668482 17.74412985 350.60521633 C32.16271966 350.59528503 46.58118112 350.60822175 60.99975114 350.63215052 C75.80424906 350.65653467 90.60868719 350.66615098 105.41320479 350.6594978 C113.72499487 350.65600383 122.03668625 350.65824925 130.34846115 350.67574883 C137.42474797 350.69046233 144.5008666 350.69111756 151.57715009 350.67367791 C155.18718241 350.66515809 158.79691418 350.66304193 162.40693092 350.67832947 C166.32143956 350.69470111 170.23548313 350.68004615 174.1499939 350.66233826 C175.28958695 350.67194326 176.42918 350.68154827 177.60330617 350.69144434 C185.88124363 350.61424658 190.93874223 348.89292973 196.91796875 342.94067383 C197.53162796 342.3364711 198.14528717 341.73226837 198.77754211 341.10975647 C199.41322617 340.46799973 200.04891022 339.82624298 200.70385742 339.16503906 C201.37728683 338.49447983 202.05071625 337.82392059 202.74455261 337.13304138 C204.15744562 335.72217926 205.56659983 334.30756395 206.97216797 332.8894043 C209.12230944 330.72314592 211.28805784 328.57342367 213.45581055 326.42480469 C214.83112285 325.04751077 216.20550468 323.66928695 217.57885742 322.29003906 C218.22466263 321.65030655 218.87046783 321.01057404 219.5358429 320.35145569 C220.1337413 319.7441008 220.73163971 319.13674591 221.34765625 318.51098633 C221.87281326 317.98344254 222.39797028 317.45589874 222.93904114 316.91236877 C226.24252976 312.69048213 226.5633076 308.55896536 226.58348083 303.32514954 C226.58871751 302.65006338 226.59395419 301.97497722 226.59934956 301.27943391 C226.61431459 299.02420081 226.61505393 296.7691953 226.61572266 294.51391602 C226.62334665 292.89395262 226.63177457 291.27399285 226.64094543 289.65403748 C226.6628772 285.25710112 226.67168788 280.86023432 226.67677188 276.46324944 C226.68041787 273.71346417 226.68665928 270.96369704 226.69377327 268.21391869 C226.71826589 258.6127378 226.73131867 249.01161091 226.73486328 239.41040039 C226.73849551 230.47455161 226.76836892 221.53904693 226.81026787 212.60330325 C226.8450182 204.92156915 226.86041256 197.23994878 226.86110932 189.55813664 C226.8619007 184.97465721 226.87057476 180.39152817 226.89910698 175.80813026 C226.92536819 171.49301592 226.9274483 167.17854042 226.91145134 162.86338234 C226.90964306 161.28564556 226.91627122 159.70787138 226.93227005 158.13021469 C227.02558551 148.32509653 226.49270416 139.87471938 219.61552906 132.29407692 C215.59071326 128.44676097 210.91994768 126.33832384 205.80151367 124.30566406 C204.97866882 123.96598602 204.15582397 123.62630798 203.30804443 123.27633667 C200.60492886 122.16332425 197.89477391 121.06865322 195.18432617 119.97363281 C193.28316709 119.1942656 191.38262363 118.41339513 189.48266602 117.63110352 C186.50606476 116.40574235 183.52907997 115.18141694 180.55007935 113.9618988 C173.31917055 111.00035038 166.11266773 107.98469553 158.91870117 104.93457031 C157.91030182 104.50707993 156.90190247 104.07958954 155.86294556 103.6391449 C151.9313667 101.9712583 148.00047431 100.30176111 144.07000732 98.6312561 C120.66291657 88.33283176 120.66291657 88.33283176 95.56713867 85.06347656 C94.44363007 85.06489151 93.32012146 85.06630646 92.16256714 85.06776428 C88.58645934 85.07334617 85.01041494 85.0858954 81.43432617 85.09863281 C79.00463958 85.10365015 76.574952 85.10821265 74.14526367 85.11230469 C68.1999073 85.12245728 62.25468742 85.14203636 56.30932617 85.16113281 C56.30932617 70.64113281 56.30932617 56.12113281 56.30932617 41.16113281 C43.76932617 41.16113281 31.22932617 41.16113281 18.30932617 41.16113281 Z " fill="#191A1A" transform="translate(218.690673828125,57.8388671875)"/>
<path d="M0 0 C12.54 0 25.08 0 38 0 C38 14.52 38 29.04 38 44 C41.54234375 43.96519531 45.0846875 43.93039063 48.734375 43.89453125 C52.19969885 43.87107432 55.66501355 43.85289269 59.13037109 43.83520508 C61.52201353 43.82020287 63.91362885 43.79979453 66.30517578 43.77368164 C69.76081064 43.73691957 73.21607892 43.72018736 76.671875 43.70703125 C77.72550232 43.69154739 78.77912964 43.67606354 79.86468506 43.66011047 C90.39439851 43.65777165 99.82359425 46.13864262 109.41015625 50.37890625 C110.16471603 50.70332199 110.91927582 51.02773773 111.69670105 51.36198425 C113.3149325 52.05885726 114.93142491 52.7597807 116.54626465 53.46447754 C120.01609535 54.97862527 123.4944333 56.47276403 126.97232056 57.96829224 C128.80769367 58.75771302 130.64262907 59.54815218 132.47714233 60.33956909 C143.03436802 64.89020231 153.64135418 69.32091081 164.25 73.75 C166.06131694 74.50715279 167.87259716 75.26439343 169.68383789 76.02172852 C170.54550568 76.38185028 171.40717346 76.74197205 172.29495239 77.11300659 C173.95752429 77.80796313 175.61994397 78.50328396 177.28219604 79.19900513 C180.76723728 80.65636795 184.25395146 82.10794451 187.75415039 83.52856445 C188.82141357 83.96386475 189.88867676 84.39916504 190.98828125 84.84765625 C191.87813721 85.20609619 192.76799316 85.56453613 193.68481445 85.93383789 C200.21890231 88.94283944 203.87282573 93.49312694 206.95344543 99.89015961 C209.06418738 106.16223637 208.67485133 112.73666772 208.61523438 119.27832031 C208.618741 120.90551328 208.62440566 122.5327028 208.63204956 124.15988159 C208.64622505 128.55234482 208.6293104 132.94417661 208.60576439 137.33657932 C208.5855752 141.94351969 208.59153889 146.55043591 208.59387207 151.15740967 C208.59381861 158.88759713 208.57412167 166.61753927 208.54199219 174.34765625 C208.50505193 183.27851158 208.49632494 192.20904639 208.5032897 201.13996816 C208.50959753 209.74599222 208.49883857 218.35190669 208.47932434 226.95790863 C208.47116039 230.61487136 208.46843891 234.27177801 208.47001648 237.92874908 C208.47089632 242.23317681 208.45665264 246.53730059 208.43078995 250.8416481 C208.42363807 252.4194275 208.42153982 253.99723926 208.42490768 255.57503128 C208.42863256 257.73160291 208.41384178 259.88729235 208.39440918 262.04376221 C208.39068047 263.24938435 208.38695175 264.45500648 208.38311005 265.69716263 C207.7783206 270.91112455 205.57631707 274.7952239 201.90893555 278.47924805 C201.30788498 279.0897551 200.70683441 279.70026215 200.08757019 280.32926941 C199.44378922 280.96697769 198.80000824 281.60468597 198.13671875 282.26171875 C197.46711624 282.93419144 196.79751373 283.60666412 196.10762024 284.29951477 C194.6949797 285.71418974 193.27857174 287.12511157 191.85864258 288.5324707 C189.6945265 290.68052565 187.54687586 292.84410876 185.40039062 295.00976562 C184.02179416 296.38637955 182.64226731 297.76206251 181.26171875 299.13671875 C180.62401047 299.78049973 179.98630219 300.4242807 179.32926941 301.08757019 C178.71876236 301.68862076 178.10825531 302.28967133 177.47924805 302.90893555 C176.95090866 303.43488815 176.42256927 303.96084076 175.8782196 304.50273132 C169.55111753 309.54653543 163.74763014 309.43277621 155.98110962 309.40113831 C154.76064544 309.40793498 153.54018126 309.41473164 152.28273332 309.42173427 C148.90250483 309.43742677 145.52275553 309.43969143 142.14252472 309.43615115 C138.49414653 309.43553832 134.84583946 309.45210297 131.19749451 309.46632385 C124.05278146 309.49122705 116.90814266 309.4994876 109.76338984 309.50116099 C103.95552405 309.50258713 98.14768273 309.50875466 92.33982468 309.51826286 C75.86986545 309.54467718 59.39996484 309.55852168 42.92998429 309.55627144 C42.04236682 309.55615157 41.15474934 309.5560317 40.24023438 309.5559082 C39.35153205 309.55578556 38.46282973 309.55566292 37.54719703 309.55553656 C23.14222772 309.55431702 8.7374936 309.58303082 -5.66740768 309.6253233 C-20.46177539 309.66841624 -35.25602839 309.68913382 -50.05046046 309.68654197 C-58.35506476 309.68554617 -66.65942243 309.69378238 -74.96397018 309.72607613 C-82.03403488 309.75339347 -89.10374112 309.75991552 -96.17383574 309.73954786 C-99.78009404 309.72975298 -103.38566467 309.72957621 -106.99185753 309.7556076 C-110.90393743 309.78355633 -114.81501353 309.76487309 -118.72714233 309.74171448 C-119.86314042 309.75714517 -120.99913851 309.77257586 -122.16956079 309.78847414 C-129.5838144 309.6914031 -133.66498935 308.14608289 -139 303 C-139.61925932 302.43157822 -140.23851865 301.86315643 -140.8765434 301.27750975 C-142.64378577 299.63850709 -144.35172135 297.95170503 -146.0546875 296.24609375 C-146.68230988 295.6227565 -147.30993225 294.99941925 -147.95657349 294.35719299 C-149.26817178 293.05128947 -150.57722313 291.74282319 -151.88378906 290.43188477 C-153.88220981 288.4302787 -155.8936784 286.44244363 -157.90625 284.45507812 C-159.18570534 283.17789377 -160.4643794 281.89992615 -161.7421875 280.62109375 C-162.34110809 280.0313829 -162.94002869 279.44167206 -163.55709839 278.83409119 C-164.38904221 277.99280418 -164.38904221 277.99280418 -165.23779297 277.13452148 C-165.9677095 276.40554909 -165.9677095 276.40554909 -166.71237183 275.66184998 C-169.95634999 271.47507841 -170.25424755 267.32878963 -170.27415466 262.16401672 C-170.27939134 261.48893057 -170.28462802 260.81384441 -170.29002339 260.11830109 C-170.30498842 257.86306799 -170.30572776 255.60806249 -170.30639648 253.3527832 C-170.31402048 251.73281981 -170.32244839 250.11286004 -170.33161926 248.49290466 C-170.35355103 244.09596831 -170.36236171 239.6991015 -170.36744571 235.30211663 C-170.37109169 232.55233136 -170.37733311 229.80256422 -170.3844471 227.05278587 C-170.40893972 217.45160499 -170.4219925 207.8504781 -170.42553711 198.24926758 C-170.42916934 189.31341879 -170.45904275 180.37791412 -170.50094169 171.44217044 C-170.53569203 163.76043633 -170.55108639 156.07881597 -170.55178314 148.39700383 C-170.55257452 143.8135244 -170.56124859 139.23039536 -170.58978081 134.64699745 C-170.61604202 130.33188311 -170.61812213 126.01740761 -170.60212517 121.70224953 C-170.60031689 120.12451275 -170.60694505 118.54673857 -170.62294388 116.96908188 C-170.71624985 107.16496075 -170.1757349 98.73492633 -163.32222271 91.14095402 C-159.17567455 87.15836299 -154.25457415 85.01702567 -148.984375 82.890625 C-148.11157898 82.52597137 -147.23878296 82.16131775 -146.33953857 81.78561401 C-143.48129982 80.5947493 -140.6158708 79.42236388 -137.75 78.25 C-135.74882899 77.42036118 -133.74818509 76.58944988 -131.74804688 75.75732422 C-127.59562873 74.0315715 -123.44046351 72.3126863 -119.28320312 70.59863281 C-113.15205148 68.06760416 -107.03516178 65.50351753 -100.921875 62.9296875 C-98.98340967 62.11423111 -97.04493328 61.29880101 -95.10644531 60.48339844 C-94.17175415 60.09019409 -93.23706299 59.69698975 -92.27404785 59.29187012 C-91.35861206 58.90680298 -90.44317627 58.52173584 -89.5 58.125 C-88.15923401 57.56093445 -88.15923401 57.56093445 -86.79138184 56.98547363 C-55.57796928 43.8676715 -55.57796928 43.8676715 -47.68066406 43.88647461 C-46.61986633 43.88655014 -45.5590686 43.88662567 -44.46612549 43.88670349 C-43.32746033 43.89186478 -42.18879517 43.89702606 -41.015625 43.90234375 C-39.84489441 43.9037587 -38.67416382 43.90517365 -37.46795654 43.90663147 C-33.72861171 43.9122291 -29.98932674 43.9247812 -26.25 43.9375 C-23.71484461 43.9425153 -21.17968829 43.94707816 -18.64453125 43.95117188 C-12.42964588 43.96134687 -6.21488996 43.98092292 0 44 C0 29.48 0 14.96 0 0 Z M-132 84 C-132.19734272 86.45399866 -132.26933767 88.7952235 -132.25396729 91.25036621 C-132.25708727 92.00612112 -132.26020725 92.76187602 -132.26342177 93.54053259 C-132.27143279 96.08634462 -132.26506616 98.63192034 -132.25878906 101.17773438 C-132.26149755 102.99742269 -132.26505768 104.81710991 -132.26940918 106.63679504 C-132.27855238 111.58915948 -132.27498099 116.54144089 -132.26865101 121.49380684 C-132.26360098 126.6672196 -132.26827967 131.84062506 -132.27142334 137.01403809 C-132.2750659 145.70321942 -132.27025629 154.39236679 -132.26074219 163.08154297 C-132.24985709 173.13923981 -132.25338246 183.19685558 -132.264395 193.25455046 C-132.27345962 201.87706304 -132.2747572 210.49955117 -132.26951766 219.12206697 C-132.26639341 224.27753307 -132.26600106 229.43296101 -132.27259064 234.58842468 C-132.2783515 239.43435667 -132.27439041 244.28018374 -132.26280212 249.12610435 C-132.26014877 250.90875257 -132.26093207 252.69140956 -132.26532745 254.47405434 C-132.27075784 256.89936829 -132.26397961 259.32434178 -132.25396729 261.74963379 C-132.25842873 262.4622693 -132.26289017 263.17490481 -132.26748681 263.90913534 C-132.34145796 267.89987214 -132.34145796 267.89987214 -130 271 C-127.75308843 271.30441459 -127.75308843 271.30441459 -125.10830784 271.25447559 C-124.06812396 271.26030779 -123.02794007 271.26613998 -121.95623547 271.27214891 C-120.80460492 271.26836958 -119.65297437 271.26459026 -118.46644592 271.26069641 C-117.24995517 271.26452196 -116.03346441 271.26834751 -114.7801103 271.27228898 C-111.39267792 271.2808519 -108.00546144 271.28037414 -104.61803496 271.27610838 C-100.96902345 271.27365048 -97.32003789 271.28264362 -93.67103577 271.29014587 C-86.51809643 271.3029211 -79.36519459 271.30468306 -72.21224577 271.30234561 C-66.40043393 271.30056543 -60.58863351 271.30230563 -54.77682304 271.30657005 C-53.95090254 271.30716524 -53.12498204 271.30776043 -52.27403365 271.30837366 C-50.59638791 271.30958536 -48.91874217 271.31079949 -47.24109643 271.31201603 C-31.49398297 271.32290246 -15.74689091 271.32072387 0.00022376 271.31463119 C14.41845088 271.30946108 28.83661046 271.32071798 43.25482421 271.33972941 C58.04564074 271.35908321 72.83642527 271.36736813 87.62725455 271.36360615 C95.93671074 271.36169036 104.24610944 271.36421831 112.55555534 271.37832069 C119.6294408 271.39020423 126.70323338 271.39167359 133.77712005 271.37953053 C137.38861621 271.37362041 140.99994223 271.37260077 144.61142731 271.38453293 C148.52085772 271.39729973 152.43002713 271.38697799 156.33946228 271.3742218 C157.48886211 271.38159609 158.63826194 271.38897037 159.82249206 271.39656812 C160.86528369 271.38936158 161.90807532 271.38215503 162.9824667 271.37473011 C163.88549666 271.37478513 164.78852662 271.37484014 165.71892112 271.37489682 C168.48309354 270.92060326 169.37406316 270.25447783 171 268 C171.29459204 265.48832565 171.40492442 263.22417064 171.38095093 260.71203613 C171.3856309 259.96429947 171.39031087 259.21656281 171.39513266 258.44616747 C171.40712654 255.93333381 171.39760854 253.42104111 171.38818359 250.90820312 C171.39224735 249.10969219 171.39758813 247.31118374 171.40411377 245.51268005 C171.41781648 240.62225437 171.41247655 235.73201807 171.40297651 230.84158897 C171.3953952 225.73004002 171.40242126 220.61850758 171.40713501 215.50695801 C171.41259703 206.92208944 171.40538925 198.33729823 171.39111328 189.75244141 C171.37478593 179.81910837 171.38007412 169.88596004 171.3965925 159.95263147 C171.41019466 151.43283329 171.41213325 142.9130908 171.40427649 134.39328527 C171.39959298 129.30094213 171.39899369 124.20868587 171.40888596 119.11634827 C171.41753489 114.32944632 171.41157176 109.54278314 171.39420319 104.75590706 C171.39022723 102.9962561 171.39139125 101.23658514 171.39799118 99.47694206 C171.40615321 97.08034224 171.39595058 94.68451412 171.38095093 92.28796387 C171.38764309 91.58670521 171.39433526 90.88544656 171.40123022 90.16293764 C171.37749411 86.51230686 171.37749411 86.51230686 169.79000062 83.32224923 C167.40766695 81.56245159 165.93167609 81.62509021 162.9824667 81.62526989 C161.93967507 81.61806335 160.89688344 81.6108568 159.82249206 81.60343188 C158.67309223 81.61080617 157.52369241 81.61818045 156.33946228 81.6257782 C154.51238616 81.61981659 154.51238616 81.61981659 152.64839941 81.61373454 C149.26118836 81.60575624 145.87448065 81.61129401 142.48731029 81.62248504 C138.83697208 81.63130799 135.18666898 81.62288911 131.53633118 81.61662292 C124.38316934 81.607122 117.2301082 81.61374588 110.07695382 81.62588587 C101.75324517 81.63948779 93.42956067 81.63786963 85.10584373 81.63575254 C70.25861143 81.63256081 55.41142707 81.64424126 40.56420898 81.66381836 C26.14459778 81.68282674 11.72504276 81.68990524 -2.69458008 81.68432617 C-18.38373344 81.67827389 -34.07286207 81.67843505 -49.76201338 81.689812 C-51.4336166 81.69101934 -53.10521982 81.69222533 -54.77682304 81.69342995 C-56.01063075 81.69433525 -56.01063075 81.69433525 -57.26936387 81.69525885 C-63.0768623 81.69914453 -68.88435155 81.69874188 -74.69185066 81.6968441 C-81.76463306 81.6947261 -88.83736614 81.69991623 -95.91013462 81.71445765 C-99.52147537 81.72172124 -103.13274416 81.72576203 -106.74409103 81.72121429 C-110.65159137 81.71641315 -114.55895981 81.72701556 -118.46644592 81.73930359 C-119.61807647 81.73552427 -120.76970702 81.73174494 -121.95623547 81.72785109 C-122.99641935 81.73368329 -124.03660323 81.73951548 -125.10830784 81.74552441 C-126.01117545 81.74639118 -126.91404306 81.74725796 -127.84427029 81.748151 C-130.21243698 81.79891801 -130.21243698 81.79891801 -132 84 Z " fill="#F9C949" transform="translate(237,99)"/>
<path d="M0 0 C0.78391113 -0.00287018 1.56782227 -0.00574036 2.37548828 -0.00869751 C4.02962976 -0.01073514 5.6837955 -0.00522631 7.33789062 0.00732422 C9.86643471 0.0233831 12.39338049 0.00746633 14.921875 -0.01171875 C16.53125352 -0.00973626 18.14063105 -0.00589247 19.75 0 C20.5042627 -0.00607269 21.25852539 -0.01214539 22.03564453 -0.0184021 C25.10820404 0.02266391 27.54098679 0.24599973 30.35180664 1.52880859 C32.56519517 4.24561087 32.37674735 6.23815164 32.37109375 9.7109375 C32.37173828 10.95101562 32.37238281 12.19109375 32.37304688 13.46875 C32.35306641 14.76554688 32.33308594 16.06234375 32.3125 17.3984375 C32.31958984 18.69523437 32.32667969 19.99203125 32.33398438 21.328125 C32.26936249 30.89216366 32.26936249 30.89216366 30.58607483 33.0531311 C27.63277648 35.37511673 23.97936916 34.82402122 20.375 34.796875 C19.54291016 34.79974518 18.71082031 34.80261536 17.85351562 34.80557251 C16.09504516 34.80761312 14.33655199 34.80208343 12.578125 34.78955078 C9.88490087 34.77349652 7.1931774 34.78939895 4.5 34.80859375 C2.79166335 34.80661132 1.08332764 34.80276764 -0.625 34.796875 C-1.43130859 34.80294769 -2.23761719 34.80902039 -3.06835938 34.8152771 C-8.68479188 34.7445444 -8.68479188 34.7445444 -10.83607483 33.0531311 C-13.9247316 29.0879819 -12.58872502 22.19523276 -12.5625 17.3984375 C-12.58248047 16.10164062 -12.60246094 14.80484375 -12.62304688 13.46875 C-12.62240234 12.22867188 -12.62175781 10.98859375 -12.62109375 9.7109375 C-12.62294678 8.57269531 -12.6247998 7.43445313 -12.62670898 6.26171875 C-12.125 3.3984375 -12.125 3.3984375 -10.60180664 1.52880859 C-7.09979013 -0.0694503 -3.77629234 -0.03040355 0 0 Z " fill="#F9C949" transform="translate(334.125,230.6015625)"/>
<path d="M0 0 C0.83208984 -0.00287018 1.66417969 -0.00574036 2.52148438 -0.00869751 C4.27995484 -0.01073812 6.03844801 -0.00520843 7.796875 0.00732422 C10.49009913 0.02337848 13.1818226 0.00747605 15.875 -0.01171875 C17.58333665 -0.00973632 19.29167236 -0.00589264 21 0 C22.20946289 -0.00910904 22.20946289 -0.00910904 23.44335938 -0.0184021 C29.05979188 0.0523306 29.05979188 0.0523306 31.21107483 1.7437439 C34.2997316 5.7088931 32.96372502 12.60164224 32.9375 17.3984375 C32.9674707 19.34363281 32.9674707 19.34363281 32.99804688 21.328125 C32.99740234 22.56820313 32.99675781 23.80828125 32.99609375 25.0859375 C32.99887329 26.79330078 32.99887329 26.79330078 33.00170898 28.53515625 C32.5 31.3984375 32.5 31.3984375 30.97680664 33.26806641 C27.47479013 34.8663253 24.15129234 34.82727855 20.375 34.796875 C19.1991333 34.80118027 19.1991333 34.80118027 17.99951172 34.80557251 C16.34537024 34.80761014 14.6912045 34.80210131 13.03710938 34.78955078 C10.50856529 34.7734919 7.98161951 34.78940867 5.453125 34.80859375 C3.84374648 34.80661126 2.23436895 34.80276747 0.625 34.796875 C-0.1292627 34.80294769 -0.88352539 34.80902039 -1.66064453 34.8152771 C-4.73320404 34.77421109 -7.16598679 34.55087527 -9.97680664 33.26806641 C-12.19019517 30.55126413 -12.00174735 28.55872336 -11.99609375 25.0859375 C-11.99673828 23.84585937 -11.99738281 22.60578125 -11.99804688 21.328125 C-11.97806641 20.03132813 -11.95808594 18.73453125 -11.9375 17.3984375 C-11.94458984 16.10164063 -11.95167969 14.80484375 -11.95898438 13.46875 C-11.89436249 3.90471134 -11.89436249 3.90471134 -10.21107483 1.7437439 C-7.25777648 -0.57824173 -3.60436916 -0.02714622 0 0 Z " fill="#FACA49" transform="translate(333.5,290.6015625)"/>
<path d="M0 0 C5.05663955 1.76166797 8.02400743 4.76770346 11.7578125 8.515625 C12.44746094 9.18464844 13.13710938 9.85367187 13.84765625 10.54296875 C15.18566588 11.84516167 16.5154662 13.15585594 17.8359375 14.47583008 C18.94624484 15.58176257 20.06898732 16.67555106 21.2109375 17.7487793 C23.71300411 20.11725342 24.5969794 21.10736215 25.3828125 24.578125 C23.72647854 32.72176695 15.81229396 38.19679604 9.6328125 43.265625 C8.94832031 43.84957031 8.26382813 44.43351562 7.55859375 45.03515625 C4.44693303 47.56597363 2.36954021 49.12394659 -1.6171875 49.890625 C-4.9974593 49.12238141 -6.23320181 47.95286624 -8.3671875 45.265625 C-10.84730833 40.30538334 -9.72232199 32.67020033 -9.7722168 27.15405273 C-9.79380171 25.35860974 -9.8279109 23.56327211 -9.87475586 21.76831055 C-9.94175978 19.17709475 -9.96921314 16.58805359 -9.98828125 13.99609375 C-10.01611191 13.19697067 -10.04394257 12.3978476 -10.07261658 11.57450867 C-10.05269066 6.15975884 -10.05269066 6.15975884 -8.10766602 3.62277222 C-5.37690788 1.20993323 -3.65367805 0.28822518 0 0 Z " fill="#F8C849" transform="translate(244.3671875,251.734375)"/>
<path d="M0 0 C3.56792101 1.32922548 4.92027175 2.14792922 7.1875 5.1875 C7.58535614 8.15697063 7.7489755 10.74761341 7.71875 13.71484375 C7.7225769 14.5407753 7.72640381 15.36670685 7.73034668 16.21766663 C7.73306453 17.96177389 7.72571213 19.70592201 7.70898438 21.44995117 C7.68759841 24.11274664 7.70877438 26.77283592 7.734375 29.43554688 C7.73173117 31.13281843 7.72660503 32.83008831 7.71875 34.52734375 C7.72684692 35.32019272 7.73494385 36.11304169 7.74328613 36.92991638 C7.67776031 40.81459797 7.44749579 42.768875 5.34960938 46.14672852 C3.1875 48.1875 3.1875 48.1875 0.0625 49.5 C-6.13315483 49.00035042 -9.3350295 45.25289561 -13.8125 41.1875 C-14.98686781 40.20897136 -16.16408846 39.23385902 -17.34375 38.26171875 C-18.54322754 37.23880664 -19.7411591 36.21407879 -20.9375 35.1875 C-21.51838379 34.71417236 -22.09926758 34.24084473 -22.69775391 33.75317383 C-24.91566639 31.78388379 -26.6271828 30.07897768 -27.24291992 27.11694336 C-27.33948465 23.52530606 -27.13610449 21.59461533 -24.875 18.75 C-23.864375 17.904375 -22.85375 17.05875 -21.8125 16.1875 C-20.38868496 14.73614502 -18.972727 13.27706149 -17.5625 11.8125 C-5.92543054 0.29141462 -5.92543054 0.29141462 0 0 Z " fill="#F7C849" transform="translate(171.8125,251.8125)"/>
<path d="M0 0 C7.53404472 1.38124153 12.33265953 8.05767309 17.07421875 13.71484375 C18.17943401 15.01585472 19.32832243 16.28114223 20.51953125 17.50390625 C23.40110737 20.52045081 24.641351 22.11462347 25.4375 26.3125 C24.54537823 30.69200686 23.274086 31.96323898 19.75 34.6875 C16.7828878 35.39629581 13.91054357 35.36586806 10.87109375 35.31640625 C10.02200943 35.31881821 9.17292511 35.32123016 8.29811096 35.32371521 C6.50867019 35.3227384 4.71919859 35.30938435 2.92993164 35.28442383 C0.1924785 35.25006249 -2.54175403 35.26378444 -5.27929688 35.28320312 C-7.02084705 35.27630568 -8.76238892 35.26663421 -10.50390625 35.25390625 C-11.32065323 35.25886612 -12.13740021 35.26382599 -12.97889709 35.26893616 C-16.56961781 35.19454294 -18.79881482 35.0144912 -21.74584961 32.87866211 C-23.53435467 30.27326803 -24.11409288 28.13007576 -23.9609375 24.9609375 C-22.37442501 19.88758437 -17.9131456 16.36231167 -14.25 12.6875 C-12.96673373 11.24009503 -11.69456427 9.78271865 -10.4375 8.3125 C-9.87417969 7.67570313 -9.31085938 7.03890625 -8.73046875 6.3828125 C-7.5352877 5.01418829 -6.38508826 3.60636032 -5.25 2.1875 C-3.25 0.6875 -3.25 0.6875 0 0 Z " fill="#F8C949" transform="translate(206.25,210.3125)"/>
<path d="M0 0 C1.27219139 -0.00574036 1.27219139 -0.00574036 2.57008362 -0.01159668 C4.36126901 -0.01431486 6.15249416 -0.00696019 7.94360352 0.00976562 C10.67880269 0.03115146 13.41136748 0.00997595 16.14648438 -0.015625 C17.88932869 -0.01298119 19.63217138 -0.0078551 21.375 0 C22.18972275 -0.00809692 23.0044455 -0.01619385 23.84385681 -0.02453613 C27.76012685 0.03979938 29.83098062 0.280124 33.26977539 2.32202148 C35.25390625 4.53125 35.25390625 4.53125 35.87890625 8.41015625 C35.57941241 12.90360374 33.42336991 15.44949789 30.25390625 18.46875 C29.24400863 19.49402096 28.23490096 20.52007059 27.2265625 21.546875 C26.72398926 22.04638672 26.22141602 22.54589844 25.70361328 23.06054688 C23.60022463 25.19439888 21.650585 27.45288581 19.69140625 29.71875 C16.83532982 33.0142228 15.51472843 34.30430201 11.12890625 35.09375 C5.33753537 34.25306713 2.96827268 30.82438358 -0.74609375 26.53125 C-1.36871094 25.83773438 -1.99132812 25.14421875 -2.6328125 24.4296875 C-3.81644079 23.09971038 -4.98502792 21.75616476 -6.13671875 20.3984375 C-7.14981561 19.22304842 -8.19848844 18.07657049 -9.29296875 16.9765625 C-11.92918413 14.23667573 -13.10168711 12.14436333 -13.30859375 8.40625 C-12.74609375 4.53125 -12.74609375 4.53125 -11.25756836 2.32226562 C-7.66248629 -0.24150633 -4.25536209 -0.04218607 0 0 Z " fill="#F8C949" transform="translate(195.74609375,307.46875)"/>
</svg>
