<svg width="436" height="420" viewBox="0 0 436 420" fill="none" xmlns="http://www.w3.org/2000/svg">
<g clip-path="url(#clip0_630_614)">
<g style="mix-blend-mode:luminosity">
<path d="M448.097 262.519L185.198 419.121L-2.24854 305.052V125.429L184.86 13.1638L185.349 38.0941L185.01 106.226L186.701 107.233L187.528 149.615L222.597 128.571L186.701 107.233L185.349 38.0941L185.446 18.1544L447.248 172.313V262.001L448.097 262.519Z" fill="#FBFBFF"/>
<path d="M448.097 262.519L185.198 419.121L-2.24854 305.052V125.429L184.86 13.1638L185.349 38.0941L185.01 106.226L186.701 107.233L187.528 149.615L222.597 128.571L186.701 107.233L185.349 38.0941L185.446 18.1544L447.248 172.313V262.001L448.097 262.519Z" stroke="#0C0C4F" stroke-width="2" stroke-miterlimit="10" stroke-linecap="round"/>
</g>
<path d="M282.266 230.05C282.146 230.359 281.282 231.757 281.101 232.042C279.51 234.468 277.72 236.759 275.75 238.889C272.014 243.148 267.604 246.764 262.695 249.592C256.616 253.129 250.106 255.867 243.326 257.739C239.033 258.962 234.665 259.904 230.249 260.558C214.873 262.895 199.188 262.169 184.094 258.423C176.423 256.527 169.059 253.554 162.222 249.592C150.197 242.452 145.462 236.349 142.41 226.571L141.869 225.067C141.596 224.302 141.388 223.515 141.245 222.715C139.884 216.404 139.022 209.996 138.667 203.549L144.327 207.879C147.544 201.295 153.511 195.101 162.215 189.916C189.843 173.516 235.059 173.516 262.687 189.916C269.783 194.132 275.051 199.025 278.471 204.256C278.636 204.496 278.787 204.744 278.937 205.007L286.656 200.611C287.686 206.537 288.014 212.563 287.633 218.566C287.34 222.399 284.679 225.541 282.266 230.05Z" fill="#0C0C4F"/>
<path d="M280.395 211.727C279.067 214.631 277.339 217.336 275.261 219.761C271.565 224.017 267.189 227.631 262.311 230.456C256.303 233.991 249.86 236.73 243.146 238.604C238.901 239.826 234.58 240.768 230.211 241.422C214.996 243.76 199.466 243.032 184.537 239.28C176.938 237.385 169.649 234.414 162.891 230.456C135.548 214.049 135.54 187.21 162.891 170.803C190.241 154.395 234.976 154.403 262.311 170.803C269.331 175.012 274.54 179.912 277.952 185.143C283.521 193.628 284.325 202.993 280.395 211.727Z" fill="#EC796B"/>
<path d="M163.425 200.626C159.013 203.339 159.013 207.773 163.425 210.487C167.836 213.2 175.059 213.2 179.471 210.487C183.883 207.773 183.89 203.339 179.471 200.626C175.052 197.913 167.836 197.913 163.425 200.626Z" fill="#EFEFEF"/>
<path d="M238.877 232.861L205.807 213.5C201.791 211.053 197.183 209.75 192.481 209.731C187.778 209.713 183.16 210.98 179.126 213.395C177.919 214.118 176.921 215.141 176.227 216.365C175.534 217.589 175.169 218.971 175.169 220.378C175.169 221.784 175.534 223.166 176.227 224.39C176.921 225.614 177.919 226.637 179.126 227.36L189.595 233.433C202.147 236.584 215.203 237.195 227.994 235.229L238.877 232.861Z" fill="#EFEFEF"/>
<path d="M213.571 170.772C209.159 173.478 209.159 177.92 213.571 180.626C217.982 183.332 225.205 183.339 229.617 180.626C234.029 177.913 234.036 173.478 229.617 170.772C225.198 168.067 217.967 168.059 213.571 170.772Z" fill="#EFEFEF"/>
<path d="M270.165 210.261C269.052 212.709 267.597 214.986 265.844 217.025L231.902 195.703C230.457 194.85 229.316 193.564 228.64 192.027C227.831 190.209 227.716 188.157 228.317 186.26C228.918 184.363 230.193 182.751 231.902 181.731C235.936 179.313 240.554 178.044 245.257 178.063C249.96 178.081 254.569 179.386 258.583 181.836L268.129 187.916C272.788 195.049 273.465 202.918 270.165 210.261Z" fill="#EFEFEF"/>
<path d="M182.011 181.633C175.999 185.308 175.999 191.328 182.011 195.004C188.024 198.679 197.795 198.687 203.808 195.004C209.82 191.321 209.82 185.308 203.808 181.633C197.795 177.958 188.002 177.95 182.011 181.633Z" fill="#FAFAFA"/>
<path d="M238.877 232.861C244.522 231.284 249.939 228.98 254.991 226.007C259.079 223.632 262.746 220.597 265.844 217.025C267.597 214.986 269.052 212.709 270.165 210.261L250.714 198.393C243.928 194.256 236.139 192.053 228.191 192.023C220.242 191.992 212.437 194.135 205.619 198.221C203.581 199.442 201.895 201.171 200.724 203.238C199.553 205.306 198.937 207.641 198.938 210.017C198.937 212.393 199.553 214.728 200.724 216.795C201.895 218.863 203.581 220.591 205.619 221.813L227.979 235.229L238.877 232.861Z" fill="#FAFAFA"/>
<path d="M280.395 211.727C279.067 214.631 277.339 217.336 275.261 219.761C271.565 224.017 267.189 227.631 262.311 230.456C256.303 233.991 249.86 236.73 243.146 238.604C238.901 239.826 234.58 240.768 230.211 241.422C214.996 243.76 199.466 243.032 184.537 239.28C176.938 237.385 169.649 234.414 162.891 230.456C135.548 214.049 135.54 187.21 162.891 170.803C190.241 154.395 234.976 154.403 262.311 170.803C269.331 175.012 274.54 179.912 277.952 185.143C283.521 193.628 284.325 202.993 280.395 211.727Z" stroke="url(#paint0_linear_630_614)" stroke-width="10.39" stroke-miterlimit="10"/>
<path d="M73.0309 173.411L35.6092 195.868L-1.8125 173.411L35.6092 150.961L54.3238 162.182L73.0309 173.411Z" fill="#FFAEA3"/>
<path d="M73.0306 173.411V218.318L35.6089 240.776V195.868L73.0306 173.411Z" fill="#0C0C4E"/>
<path d="M35.6092 195.868V240.776L-1.8125 218.318V173.411L35.6092 195.868Z" fill="url(#paint1_linear_630_614)"/>
<path d="M409.826 194.523L372.405 216.98L334.983 194.523L372.405 172.073L409.826 194.523Z" fill="#FFAEA3"/>
<path d="M409.826 194.523V239.43L372.404 261.888V216.98L409.826 194.523Z" fill="#0C0C4E"/>
<path d="M372.405 216.98V261.888L334.983 239.43V194.523L372.405 216.98Z" fill="url(#paint2_linear_630_614)"/>
<path d="M187.468 86.7671V19.4246" stroke="#AFBFFD" stroke-width="3" stroke-miterlimit="10" stroke-linecap="round"/>
<path d="M372.404 198.499V131.156" stroke="#AFBFFD" stroke-width="3" stroke-miterlimit="10" stroke-linecap="round"/>
<path d="M35.6089 172.073V104.73" stroke="#AFBFFD" stroke-width="3" stroke-miterlimit="10" stroke-linecap="round"/>
<path d="M262.372 284.338L224.95 306.795L187.528 284.338L224.95 261.888L262.372 284.338Z" fill="#FFAEA3"/>
<path d="M262.371 284.338V329.245L224.95 351.703V306.795L262.371 284.338Z" fill="#0C0C4E"/>
<path d="M224.95 306.795V351.703L187.528 329.245V284.338L224.95 306.795Z" fill="url(#paint3_linear_630_614)"/>
<path d="M224.95 82.2501V127.158L187.528 149.615V104.708L224.95 82.2501Z" fill="#0C0C4E"/>
<path d="M224.95 82.2501L187.528 104.708L150.106 82.2501L187.528 59.8L224.95 82.2501Z" fill="#FFAEA3"/>
<path d="M187.528 104.708V149.615L150.106 127.158V82.2501L187.528 104.708Z" fill="url(#paint4_linear_630_614)"/>
<path d="M222.717 -7.54998L185.296 14.9076L147.874 -7.54998L185.296 -30L222.717 -7.54998Z" fill="#FFAEA3"/>
<path d="M222.718 -7.54993V37.3576L185.296 59.8152V14.9076L222.718 -7.54993Z" fill="#0C0C4E"/>
<path d="M185.296 14.9076V59.8152L147.874 37.3576V-7.54993L185.296 14.9076Z" fill="url(#paint5_linear_630_614)"/>
<path d="M73.8503 83.5954L36.4285 106.053L-0.993164 83.5954L36.4285 61.1454L73.8503 83.5954Z" fill="#FFAEA3"/>
<path d="M73.8499 83.5955V128.503L36.4282 150.961V106.053L73.8499 83.5955Z" fill="#0C0C4E"/>
<path d="M36.4286 106.053V150.961L-0.993164 128.503V83.5955L36.4286 106.053Z" fill="url(#paint6_linear_630_614)"/>
<path d="M409.826 104.715L372.405 127.173L334.983 104.715L372.405 82.2651L409.826 104.715Z" fill="#FFAEA3"/>
<path d="M409.826 104.715V149.623L372.404 172.08V127.173L409.826 104.715Z" fill="#0C0C4E"/>
<path d="M372.405 127.173V172.08L334.983 149.623V104.715L372.405 127.173Z" fill="url(#paint7_linear_630_614)"/>
<path d="M204.011 115.944L372.405 216.98" stroke="#AFBFFD" stroke-width="3" stroke-miterlimit="10" stroke-linecap="round"/>
<path d="M166.589 115.944L73.0308 173.411" stroke="#AFBFFD" stroke-width="3" stroke-miterlimit="10" stroke-linecap="round"/>
<path d="M54.3237 204.196L187.528 284.338" stroke="#AFBFFD" stroke-width="3" stroke-miterlimit="10" stroke-linecap="round"/>
<path d="M350.939 229.863L262.372 284.338" stroke="#AFBFFD" stroke-width="3" stroke-miterlimit="10" stroke-linecap="round"/>
</g>
<defs>
<linearGradient id="paint0_linear_630_614" x1="142.381" y1="200.631" x2="282.84" y2="200.631" gradientUnits="userSpaceOnUse">
<stop stop-color="#EC796B"/>
<stop offset="1" stop-color="#D672EF"/>
</linearGradient>
<linearGradient id="paint1_linear_630_614" x1="-1.8125" y1="207.093" x2="35.6092" y2="207.093" gradientUnits="userSpaceOnUse">
<stop stop-color="#EC796B"/>
<stop offset="1" stop-color="#D672EF"/>
</linearGradient>
<linearGradient id="paint2_linear_630_614" x1="334.983" y1="228.205" x2="372.405" y2="228.205" gradientUnits="userSpaceOnUse">
<stop stop-color="#EC796B"/>
<stop offset="1" stop-color="#D672EF"/>
</linearGradient>
<linearGradient id="paint3_linear_630_614" x1="187.528" y1="318.02" x2="224.95" y2="318.02" gradientUnits="userSpaceOnUse">
<stop stop-color="#EC796B"/>
<stop offset="1" stop-color="#D672EF"/>
</linearGradient>
<linearGradient id="paint4_linear_630_614" x1="150.106" y1="115.933" x2="187.528" y2="115.933" gradientUnits="userSpaceOnUse">
<stop stop-color="#EC796B"/>
<stop offset="1" stop-color="#D672EF"/>
</linearGradient>
<linearGradient id="paint5_linear_630_614" x1="147.874" y1="26.1326" x2="185.296" y2="26.1326" gradientUnits="userSpaceOnUse">
<stop stop-color="#EC796B"/>
<stop offset="1" stop-color="#D672EF"/>
</linearGradient>
<linearGradient id="paint6_linear_630_614" x1="-0.993164" y1="117.278" x2="36.4286" y2="117.278" gradientUnits="userSpaceOnUse">
<stop stop-color="#EC796B"/>
<stop offset="1" stop-color="#D672EF"/>
</linearGradient>
<linearGradient id="paint7_linear_630_614" x1="334.983" y1="138.398" x2="372.405" y2="138.398" gradientUnits="userSpaceOnUse">
<stop stop-color="#EC796B"/>
<stop offset="1" stop-color="#D672EF"/>
</linearGradient>
<clipPath id="clip0_630_614">
<rect width="452.555" height="450" fill="white" transform="translate(-3 -30)"/>
</clipPath>
</defs>
</svg>
