<svg width="179" height="220" viewBox="0 0 179 220" fill="none" xmlns="http://www.w3.org/2000/svg">
<path d="M20 18L20 54.9079L111 95.5" stroke="#FFDFDE" stroke-width="1.65"/>
<path d="M161 18L161 54.9079L70 95.5" stroke="#FFDFDE" stroke-width="1.65"/>
<line x1="89.825" y1="14" x2="89.825" y2="214" stroke="#FFDFDE" stroke-width="1.65"/>
<g filter="url(#filter0_di_274_1638)">
<rect x="2" y="85" width="174" height="52" rx="8" fill="url(#paint0_linear_274_1638)"/>
<g filter="url(#filter1_d_274_1638)">
<path d="M64.7749 109.166H62.7806C62.7039 108.74 62.5612 108.365 62.3524 108.041C62.1436 107.717 61.8879 107.442 61.5853 107.217C61.2828 106.991 60.944 106.82 60.569 106.705C60.1982 106.59 59.8041 106.533 59.3865 106.533C58.6322 106.533 57.9568 106.722 57.3602 107.102C56.7678 107.481 56.2991 108.037 55.9539 108.77C55.613 109.503 55.4426 110.398 55.4426 111.455C55.4426 112.52 55.613 113.419 55.9539 114.152C56.2991 114.885 56.77 115.439 57.3666 115.814C57.9632 116.189 58.6343 116.376 59.3801 116.376C59.7934 116.376 60.1855 116.321 60.5562 116.21C60.9312 116.095 61.27 115.927 61.5725 115.705C61.8751 115.484 62.1308 115.213 62.3396 114.893C62.5526 114.57 62.6997 114.199 62.7806 113.781L64.7749 113.788C64.6684 114.431 64.4617 115.023 64.1549 115.565C63.8524 116.102 63.4624 116.566 62.9852 116.958C62.5122 117.346 61.971 117.646 61.3616 117.859C60.7522 118.072 60.0874 118.179 59.3673 118.179C58.2338 118.179 57.2238 117.911 56.3374 117.374C55.4511 116.832 54.7522 116.059 54.2409 115.053C53.7338 114.048 53.4802 112.848 53.4802 111.455C53.4802 110.057 53.7359 108.857 54.2472 107.856C54.7586 106.85 55.4575 106.079 56.3438 105.542C57.2302 105.001 58.238 104.73 59.3673 104.73C60.0619 104.73 60.7096 104.83 61.3105 105.031C61.9156 105.227 62.4589 105.516 62.9404 105.9C63.422 106.279 63.8204 106.744 64.1357 107.293C64.4511 107.839 64.6642 108.463 64.7749 109.166ZM71.1207 118.198C70.2002 118.198 69.3969 117.987 68.7108 117.565C68.0248 117.143 67.4921 116.553 67.1128 115.795C66.7336 115.036 66.5439 114.15 66.5439 113.136C66.5439 112.117 66.7336 111.227 67.1128 110.464C67.4921 109.701 68.0248 109.109 68.7108 108.687C69.3969 108.265 70.2002 108.054 71.1207 108.054C72.0411 108.054 72.8444 108.265 73.5305 108.687C74.2165 109.109 74.7492 109.701 75.1285 110.464C75.5077 111.227 75.6974 112.117 75.6974 113.136C75.6974 114.15 75.5077 115.036 75.1285 115.795C74.7492 116.553 74.2165 117.143 73.5305 117.565C72.8444 117.987 72.0411 118.198 71.1207 118.198ZM71.127 116.594C71.7236 116.594 72.218 116.436 72.61 116.121C73.002 115.805 73.2918 115.386 73.4793 114.862C73.6711 114.337 73.767 113.76 73.767 113.129C73.767 112.503 73.6711 111.928 73.4793 111.403C73.2918 110.875 73.002 110.451 72.61 110.131C72.218 109.812 71.7236 109.652 71.127 109.652C70.5262 109.652 70.0276 109.812 69.6313 110.131C69.2393 110.451 68.9474 110.875 68.7556 111.403C68.5681 111.928 68.4743 112.503 68.4743 113.129C68.4743 113.76 68.5681 114.337 68.7556 114.862C68.9474 115.386 69.2393 115.805 69.6313 116.121C70.0276 116.436 70.5262 116.594 71.127 116.594ZM79.7419 112.17V118H77.8307V108.182H79.6652V109.78H79.7867C80.0125 109.26 80.3662 108.842 80.8477 108.527C81.3335 108.212 81.945 108.054 82.6823 108.054C83.3513 108.054 83.9372 108.195 84.4401 108.476C84.9429 108.753 85.3328 109.166 85.6098 109.716C85.8868 110.266 86.0253 110.945 86.0253 111.755V118H84.1141V111.985C84.1141 111.273 83.9287 110.717 83.558 110.317C83.1872 109.912 82.678 109.71 82.0303 109.71C81.5871 109.71 81.1929 109.805 80.8477 109.997C80.5068 110.189 80.2362 110.47 80.036 110.841C79.8399 111.207 79.7419 111.651 79.7419 112.17ZM90.4997 112.17V118H88.5885V108.182H90.423V109.78H90.5445C90.7703 109.26 91.124 108.842 91.6056 108.527C92.0914 108.212 92.7029 108.054 93.4401 108.054C94.1091 108.054 94.695 108.195 95.1979 108.476C95.7007 108.753 96.0906 109.166 96.3676 109.716C96.6446 110.266 96.7831 110.945 96.7831 111.755V118H94.8719V111.985C94.8719 111.273 94.6865 110.717 94.3158 110.317C93.945 109.912 93.4358 109.71 92.7881 109.71C92.3449 109.71 91.9507 109.805 91.6056 109.997C91.2646 110.189 90.9941 110.47 90.7938 110.841C90.5977 111.207 90.4997 111.651 90.4997 112.17ZM103.578 118.198C102.611 118.198 101.777 117.991 101.079 117.578C100.384 117.161 99.847 116.575 99.4678 115.82C99.0928 115.062 98.9053 114.173 98.9053 113.155C98.9053 112.149 99.0928 111.263 99.4678 110.496C99.847 109.729 100.375 109.13 101.053 108.7C101.735 108.269 102.532 108.054 103.444 108.054C103.998 108.054 104.535 108.146 105.054 108.329C105.574 108.512 106.041 108.8 106.454 109.192C106.868 109.584 107.194 110.093 107.432 110.719C107.671 111.342 107.79 112.098 107.79 112.989V113.666H99.9855V112.234H105.917C105.917 111.732 105.815 111.286 105.611 110.898C105.406 110.506 105.118 110.197 104.748 109.972C104.381 109.746 103.951 109.633 103.456 109.633C102.919 109.633 102.451 109.765 102.05 110.029C101.654 110.289 101.347 110.63 101.13 111.052C100.917 111.469 100.81 111.923 100.81 112.413V113.532C100.81 114.188 100.925 114.746 101.155 115.207C101.39 115.667 101.716 116.018 102.133 116.261C102.551 116.5 103.039 116.619 103.597 116.619C103.959 116.619 104.29 116.568 104.588 116.466C104.886 116.359 105.144 116.202 105.361 115.993C105.579 115.784 105.745 115.526 105.86 115.219L107.669 115.545C107.524 116.078 107.264 116.545 106.889 116.945C106.518 117.342 106.052 117.651 105.489 117.872C104.931 118.089 104.294 118.198 103.578 118.198ZM114.046 118.198C113.096 118.198 112.278 117.983 111.592 117.553C110.91 117.118 110.386 116.519 110.019 115.756C109.653 114.994 109.47 114.12 109.47 113.136C109.47 112.138 109.657 111.259 110.032 110.496C110.407 109.729 110.936 109.13 111.617 108.7C112.299 108.269 113.103 108.054 114.027 108.054C114.773 108.054 115.438 108.192 116.022 108.469C116.605 108.742 117.076 109.126 117.434 109.62C117.796 110.114 118.012 110.692 118.08 111.352H116.22C116.117 110.892 115.883 110.496 115.517 110.163C115.154 109.831 114.669 109.665 114.059 109.665C113.527 109.665 113.06 109.805 112.659 110.087C112.263 110.364 111.954 110.76 111.733 111.276C111.511 111.787 111.4 112.392 111.4 113.091C111.4 113.807 111.509 114.425 111.726 114.945C111.943 115.464 112.25 115.867 112.647 116.153C113.047 116.438 113.518 116.581 114.059 116.581C114.421 116.581 114.75 116.515 115.044 116.383C115.342 116.246 115.591 116.053 115.791 115.801C115.996 115.55 116.139 115.247 116.22 114.893H118.08C118.012 115.528 117.805 116.095 117.46 116.594C117.115 117.092 116.652 117.484 116.073 117.77C115.497 118.055 114.822 118.198 114.046 118.198ZM124.707 108.182V109.716H119.344V108.182H124.707ZM120.782 105.83H122.693V115.117C122.693 115.488 122.749 115.767 122.859 115.955C122.97 116.138 123.113 116.263 123.288 116.332C123.467 116.396 123.661 116.428 123.869 116.428C124.023 116.428 124.157 116.417 124.272 116.396C124.387 116.374 124.477 116.357 124.541 116.344L124.886 117.923C124.775 117.966 124.617 118.009 124.413 118.051C124.208 118.098 123.953 118.124 123.646 118.128C123.143 118.136 122.674 118.047 122.239 117.859C121.805 117.672 121.453 117.382 121.185 116.99C120.916 116.598 120.782 116.106 120.782 115.513V105.83Z" fill="#FAFAFA"/>
</g>
</g>
<path d="M36.1668 25.2258L30.5555 19.6116L30.5544 19.6105C29.5213 18.5832 28.1237 18.0066 26.6668 18.0066C25.21 18.0066 23.8123 18.5832 22.7793 19.6105L22.7783 19.6115L21.6528 20.7369L17.2214 16.2808L17.2215 16.2807L17.2115 16.2712C16.1658 15.2758 14.7773 14.7207 13.3335 14.7207C11.8897 14.7207 10.5012 15.2758 9.45545 16.2712L9.45534 16.2711L9.44661 16.2798L3.8335 21.8929V8.33414C3.83725 7.14163 4.31264 5.99902 5.15589 5.15576C5.99914 4.31251 7.14175 3.83713 8.33426 3.83337H31.6661C32.8586 3.83713 34.0012 4.31251 34.8444 5.15576C35.6876 5.9989 36.1629 7.14131 36.1668 8.33365C36.1668 8.33405 36.1668 8.33446 36.1668 8.33487L36.1668 25.2258Z" fill="url(#paint1_linear_274_1638)" stroke="#FFDFDE"/>
<path d="M13.3335 15.7206C14.5184 15.7206 15.658 16.1753 16.5173 16.9908L34.5486 35.1202C34.2111 35.4022 33.8334 35.6337 33.4271 35.8067C32.8704 36.0438 32.2716 36.1662 31.6665 36.1666L8.33499 36.1666C8.33478 36.1666 8.33457 36.1666 8.33436 36.1666C7.14182 36.1629 5.99916 35.6875 5.15589 34.8442C4.31264 34.001 3.83725 32.8584 3.8335 31.6658V23.3071L10.1492 16.9913C11.0086 16.1755 12.1484 15.7206 13.3335 15.7206Z" fill="#315430" stroke="#FFDFDE"/>
<path d="M36.1669 31.6667V31.6673C36.1681 32.6593 35.8378 33.6174 35.2364 34.3938L22.358 21.446L23.4844 20.3196C23.4846 20.3194 23.4847 20.3192 23.4849 20.3191C24.3305 19.4784 25.4745 19.0066 26.6669 19.0066C27.8592 19.0066 29.0032 19.4784 29.8488 20.3191C29.849 20.3192 29.8491 20.3194 29.8493 20.3196L36.1669 26.6371V31.6667Z" fill="#FFB1AB" stroke="#FFDFDE"/>
<path d="M105.167 25.2258L99.5555 19.6116L99.5544 19.6105C98.5213 18.5832 97.1237 18.0066 95.6668 18.0066C94.21 18.0066 92.8123 18.5832 91.7793 19.6105L91.7783 19.6115L90.6528 20.7369L86.2214 16.2808L86.2215 16.2807L86.2115 16.2712C85.1658 15.2758 83.7773 14.7207 82.3335 14.7207C80.8897 14.7207 79.5012 15.2758 78.4554 16.2712L78.4553 16.2711L78.4466 16.2798L72.8335 21.8929V8.33414C72.8372 7.14163 73.3126 5.99902 74.1559 5.15576C74.9991 4.31251 76.1417 3.83713 77.3343 3.83337H100.666C101.859 3.83713 103.001 4.31251 103.844 5.15576C104.688 5.9989 105.163 7.14131 105.167 8.33365C105.167 8.33405 105.167 8.33446 105.167 8.33487L105.167 25.2258Z" fill="url(#paint2_linear_274_1638)" stroke="#FFDFDE"/>
<path d="M82.3335 15.7206C83.5184 15.7206 84.658 16.1753 85.5173 16.9908L103.549 35.1202C103.211 35.4022 102.833 35.6337 102.427 35.8067C101.87 36.0438 101.272 36.1662 100.667 36.1666L77.335 36.1666C77.3348 36.1666 77.3346 36.1666 77.3344 36.1666C76.1418 36.1629 74.9992 35.6875 74.1559 34.8442C73.3126 34.001 72.8372 32.8584 72.8335 31.6658V23.3071L79.1492 16.9913C80.0086 16.1755 81.1484 15.7206 82.3335 15.7206Z" fill="#315430" stroke="#FFDFDE"/>
<path d="M105.167 31.6667V31.6673C105.168 32.6593 104.838 33.6174 104.236 34.3938L91.358 21.446L92.4844 20.3196C92.4846 20.3194 92.4847 20.3192 92.4849 20.3191C93.3305 19.4784 94.4745 19.0066 95.6669 19.0066C96.8592 19.0066 98.0032 19.4784 98.8488 20.3191C98.849 20.3192 98.8491 20.3194 98.8493 20.3196L105.167 26.6371V31.6667Z" fill="#FFB1AB" stroke="#FFDFDE"/>
<path d="M175.167 25.2258L169.555 19.6116L169.554 19.6105C168.521 18.5832 167.124 18.0066 165.667 18.0066C164.21 18.0066 162.812 18.5832 161.779 19.6105L161.778 19.6115L160.653 20.7369L156.221 16.2808L156.221 16.2807L156.212 16.2712C155.166 15.2758 153.777 14.7207 152.333 14.7207C150.89 14.7207 149.501 15.2758 148.455 16.2712L148.455 16.2711L148.447 16.2798L142.833 21.8929V8.33414C142.837 7.14163 143.313 5.99902 144.156 5.15576C144.999 4.31251 146.142 3.83713 147.334 3.83337H170.666C171.859 3.83713 173.001 4.31251 173.844 5.15576C174.688 5.9989 175.163 7.14131 175.167 8.33365C175.167 8.33405 175.167 8.33446 175.167 8.33487L175.167 25.2258Z" fill="url(#paint3_linear_274_1638)" stroke="#FFDFDE"/>
<path d="M152.333 15.7206C153.518 15.7206 154.658 16.1753 155.517 16.9908L173.549 35.1202C173.211 35.4022 172.833 35.6337 172.427 35.8067C171.87 36.0438 171.272 36.1662 170.667 36.1666L147.335 36.1666C147.335 36.1666 147.335 36.1666 147.334 36.1666C146.142 36.1629 144.999 35.6875 144.156 34.8442C143.313 34.001 142.837 32.8584 142.833 31.6658V23.3071L149.149 16.9913C150.009 16.1755 151.148 15.7206 152.333 15.7206Z" fill="#315430" stroke="#FFDFDE"/>
<path d="M175.167 31.6667V31.6673C175.168 32.6593 174.838 33.6174 174.236 34.3938L161.358 21.446L162.484 20.3196C162.485 20.3194 162.485 20.3192 162.485 20.3191C163.331 19.4784 164.474 19.0066 165.667 19.0066C166.859 19.0066 168.003 19.4784 168.849 20.3191C168.849 20.3192 168.849 20.3194 168.849 20.3196L175.167 26.6371V31.6667Z" fill="#FFB1AB" stroke="#FFDFDE"/>
<rect x="69" y="180" width="40" height="40" rx="20" fill="url(#paint4_linear_274_1638)"/>
<path d="M96.5 194.75H81.5C80.2574 194.75 79.25 195.757 79.25 197V206C79.25 207.243 80.2574 208.25 81.5 208.25H96.5C97.7426 208.25 98.75 207.243 98.75 206V197C98.75 195.757 97.7426 194.75 96.5 194.75Z" stroke="#FFDFDE" stroke-width="1.5" stroke-linejoin="round"/>
<path d="M96.2825 194.75V193.344C96.2824 192.999 96.2062 192.658 96.0592 192.346C95.9123 192.034 95.6984 191.758 95.4326 191.538C95.1668 191.319 94.8558 191.16 94.5217 191.074C94.1877 190.989 93.8388 190.978 93.5 191.042L81.155 193.149C80.6189 193.251 80.1353 193.537 79.7875 193.958C79.4397 194.379 79.2496 194.907 79.25 195.453V197.75" stroke="#FFDFDE" stroke-width="1.5" stroke-linejoin="round"/>
<path d="M94.25 203C93.9533 203 93.6633 202.912 93.4166 202.747C93.17 202.582 92.9777 202.348 92.8642 202.074C92.7506 201.8 92.7209 201.498 92.7788 201.207C92.8367 200.916 92.9796 200.649 93.1893 200.439C93.3991 200.23 93.6664 200.087 93.9574 200.029C94.2483 199.971 94.5499 200.001 94.824 200.114C95.0981 200.228 95.3324 200.42 95.4972 200.667C95.662 200.913 95.75 201.203 95.75 201.5C95.75 201.898 95.592 202.279 95.3107 202.561C95.0294 202.842 94.6478 203 94.25 203Z" fill="#FFDFDE"/>
<defs>
<filter id="filter0_di_274_1638" x="1" y="83" width="176" height="55" filterUnits="userSpaceOnUse" color-interpolation-filters="sRGB">
<feFlood flood-opacity="0" result="BackgroundImageFix"/>
<feColorMatrix in="SourceAlpha" type="matrix" values="0 0 0 0 0 0 0 0 0 0 0 0 0 0 0 0 0 0 127 0" result="hardAlpha"/>
<feMorphology radius="1" operator="dilate" in="SourceAlpha" result="effect1_dropShadow_274_1638"/>
<feOffset/>
<feComposite in2="hardAlpha" operator="out"/>
<feColorMatrix type="matrix" values="0 0 0 0 1 0 0 0 0 0.875212 0 0 0 0 0.870833 0 0 0 1 0"/>
<feBlend mode="normal" in2="BackgroundImageFix" result="effect1_dropShadow_274_1638"/>
<feBlend mode="normal" in="SourceGraphic" in2="effect1_dropShadow_274_1638" result="shape"/>
<feColorMatrix in="SourceAlpha" type="matrix" values="0 0 0 0 0 0 0 0 0 0 0 0 0 0 0 0 0 0 127 0" result="hardAlpha"/>
<feMorphology radius="1" operator="erode" in="SourceAlpha" result="effect2_innerShadow_274_1638"/>
<feOffset dy="-4"/>
<feGaussianBlur stdDeviation="0.5"/>
<feComposite in2="hardAlpha" operator="arithmetic" k2="-1" k3="1"/>
<feColorMatrix type="matrix" values="0 0 0 0 0.862745 0 0 0 0 0.454902 0 0 0 0 0.807843 0 0 0 1 0"/>
<feBlend mode="normal" in2="shape" result="effect2_innerShadow_274_1638"/>
</filter>
<filter id="filter1_d_274_1638" x="51.48" y="104.73" width="75.4058" height="17.468" filterUnits="userSpaceOnUse" color-interpolation-filters="sRGB">
<feFlood flood-opacity="0" result="BackgroundImageFix"/>
<feColorMatrix in="SourceAlpha" type="matrix" values="0 0 0 0 0 0 0 0 0 0 0 0 0 0 0 0 0 0 127 0" result="hardAlpha"/>
<feOffset dy="2"/>
<feGaussianBlur stdDeviation="1"/>
<feComposite in2="hardAlpha" operator="out"/>
<feColorMatrix type="matrix" values="0 0 0 0 0.0470588 0 0 0 0 0.0470588 0 0 0 0 0.309804 0 0 0 0.3 0"/>
<feBlend mode="normal" in2="BackgroundImageFix" result="effect1_dropShadow_274_1638"/>
<feBlend mode="normal" in="SourceGraphic" in2="effect1_dropShadow_274_1638" result="shape"/>
</filter>
<linearGradient id="paint0_linear_274_1638" x1="2" y1="111" x2="176" y2="111" gradientUnits="userSpaceOnUse">
<stop stop-color="#EC796B"/>
<stop offset="1" stop-color="#D672EF"/>
</linearGradient>
<linearGradient id="paint1_linear_274_1638" x1="3.3335" y1="14.8834" x2="36.6668" y2="14.8834" gradientUnits="userSpaceOnUse">
<stop stop-color="#EC796B"/>
<stop offset="1" stop-color="#D672EF"/>
</linearGradient>
<linearGradient id="paint2_linear_274_1638" x1="72.3335" y1="14.8834" x2="105.667" y2="14.8834" gradientUnits="userSpaceOnUse">
<stop stop-color="#EC796B"/>
<stop offset="1" stop-color="#D672EF"/>
</linearGradient>
<linearGradient id="paint3_linear_274_1638" x1="142.333" y1="14.8834" x2="175.667" y2="14.8834" gradientUnits="userSpaceOnUse">
<stop stop-color="#EC796B"/>
<stop offset="1" stop-color="#D672EF"/>
</linearGradient>
<linearGradient id="paint4_linear_274_1638" x1="69" y1="200" x2="109" y2="200" gradientUnits="userSpaceOnUse">
<stop stop-color="#EC796B"/>
<stop offset="1" stop-color="#D672EF"/>
</linearGradient>
</defs>
</svg>
