<svg width="22" height="22" viewBox="0 0 22 22" fill="none" xmlns="http://www.w3.org/2000/svg">
<path d="M8.25016 7.33334V10.0833C8.25016 10.6333 7.8835 11 7.3335 11H4.5835M14.6668 14.6667H16.5002C17.0502 14.6667 17.4168 14.3 17.4168 13.75V4.58334C17.4168 4.03334 17.0502 3.66667 16.5002 3.66667H10.0835C9.84038 3.66667 9.60722 3.76325 9.43532 3.93516C9.26341 4.10707 9.16683 4.34022 9.16683 4.58334V5.50001M12.8335 8.25001V17.4167C12.8335 17.9667 12.4668 18.3333 11.9168 18.3333H5.50016C5.25705 18.3333 5.02389 18.2368 4.85198 18.0649C4.68007 17.8929 4.5835 17.6598 4.5835 17.4167V10.9083C4.5835 10.6333 4.5835 10.45 4.76683 10.2667L7.0585 7.60834C7.24183 7.42501 7.51683 7.33334 7.79183 7.33334H11.9168C12.4668 7.33334 12.8335 7.70001 12.8335 8.25001Z" stroke="#7A7A7A" stroke-width="1.25" stroke-linejoin="round"/>
</svg>
