<svg width="305" height="359" viewBox="0 0 305 359" fill="none" xmlns="http://www.w3.org/2000/svg">
<path d="M299.034 71.7478C300.773 72.7928 302.212 74.2698 303.211 76.0353C304.211 77.8008 304.737 79.7948 304.738 81.8237V180.487C304.738 183.531 302 187.548 293.9 185.206L155.275 96.2349L149.871 -1.49737C149.685 -4.93205 151.919 -6.95563 155.029 -8.42678L156.572 -9.15335C157.888 -9.7739 159.336 -10.0607 160.789 -9.98846C162.241 -9.91619 163.654 -9.48706 164.901 -8.73902L299.034 71.7478Z" fill="#FCFCFC"/>
<path d="M299.322 87.0298V98.0844L149.835 8.4164V-0.926896C149.836 -1.78822 150.065 -2.63398 150.499 -3.3779C150.933 -4.12182 151.557 -4.73728 152.306 -5.16153C153.056 -5.58577 153.904 -5.80361 154.766 -5.79283C155.627 -5.78205 156.47 -5.54303 157.209 -5.10015L293.431 76.6297C295.228 77.7066 296.715 79.2307 297.747 81.0533C298.779 82.876 299.322 84.935 299.322 87.0298Z" fill="#0C0C4E"/>
<path d="M299.322 98.0844V181.55C299.322 182.243 299.138 182.924 298.787 183.523C298.437 184.122 297.934 184.616 297.329 184.956C296.724 185.295 296.039 185.467 295.346 185.454C294.652 185.441 293.975 185.244 293.383 184.882L149.835 97.3518V8.41638L299.322 98.0844Z" fill="#EAEAEA"/>
<g style="mix-blend-mode:color-dodge">
<path d="M159.485 32.1409L159.473 68.0129L179.732 80.1664V44.2884L159.485 32.1409Z" fill="#0C0C4E"/>
</g>
<g style="mix-blend-mode:color-dodge">
<path d="M274.252 101.123L274.228 117.143L286.237 124.061L286.249 108.034L274.252 101.123Z" fill="#0C0C4E"/>
</g>
<g style="mix-blend-mode:color-dodge">
<path d="M159.461 1.67916C158.104 0.892543 156.993 2.14152 156.993 4.46533C156.993 6.78915 158.116 9.33513 159.479 10.1217C160.842 10.9084 161.953 9.66539 161.947 7.34158C161.941 5.01776 160.824 2.47178 159.461 1.67916Z" fill="#0C0C4E"/>
</g>
<g style="mix-blend-mode:color-dodge">
<path d="M167.255 6.21273C165.891 5.42611 164.787 6.67509 164.787 8.9989C164.787 11.3227 165.91 13.8687 167.273 14.6553C168.636 15.4419 169.746 14.199 169.74 11.8751C169.734 9.55133 168.618 7.01135 167.255 6.21273Z" fill="#0C0C4E"/>
</g>
<g style="mix-blend-mode:color-dodge">
<path d="M174.965 10.6141C173.601 9.82748 172.497 11.0765 172.497 13.4003C172.497 15.7241 173.619 18.2701 174.983 19.0567C176.346 19.8433 177.456 18.6003 177.45 16.2765C177.444 13.9527 176.328 11.4067 174.965 10.6141Z" fill="#0C0C4E"/>
</g>
<g style="mix-blend-mode:color-dodge">
<path d="M274.252 121.01L274.228 137.031L286.237 143.948L286.249 127.922L274.252 121.01Z" fill="#0C0C4E"/>
</g>
<g style="mix-blend-mode:color-dodge">
<path d="M159.479 75.5428L159.473 90.5786L179.732 102.732L179.726 87.6903L159.479 75.5428Z" fill="#0C0C4E"/>
</g>
<g style="mix-blend-mode:color-dodge">
<path d="M189.682 50.2631L189.694 102.882L269.424 150.013V98.1024L189.682 50.2631Z" fill="#FCFCFC"/>
</g>
<path d="M216.049 78.7854L219.621 85.3485L214.481 85.961" stroke="#0C0C4E" stroke-width="2" stroke-miterlimit="10"/>
<path d="M204.928 85.9609L217.82 93.6229" stroke="#0C0C4E" stroke-width="2" stroke-miterlimit="10"/>
<path d="M226.605 89.8521L238.098 96.0609" stroke="#0C0C4E" stroke-width="2" stroke-miterlimit="10"/>
<path d="M245.177 100.57L256.664 106.779" stroke="#0C0C4E" stroke-width="2" stroke-miterlimit="10"/>
<path d="M217.051 100.883V109.884" stroke="#0C0C4E" stroke-width="2" stroke-miterlimit="10"/>
<path d="M239.527 107.073V125.046" stroke="#0C0C4E" stroke-width="2" stroke-miterlimit="10"/>
<path d="M229.553 101.201V119.173" stroke="#0C0C4E" stroke-width="2" stroke-miterlimit="10"/>
<path d="M216.049 78.7854L219.621 85.3485L214.481 85.961" stroke="#0C0C4E" stroke-width="2" stroke-miterlimit="10"/>
<path d="M211.852 84.8261L208.279 78.263L213.419 77.6505" stroke="#0C0C4E" stroke-width="2" stroke-miterlimit="10"/>
<path d="M223.693 262.463C221.891 261.382 219.555 261.502 217.154 262.805C211.965 265.615 207.762 273.421 207.762 280.146C207.762 283.683 208.963 286.397 211.035 287.586C211.802 288.019 212.67 288.243 213.551 288.235C214.957 288.194 216.327 287.78 217.52 287.034C222.714 283.965 226.935 276.189 226.935 269.698C226.905 266.306 225.734 263.676 223.693 262.463Z" stroke="#231F20" stroke-miterlimit="10"/>
<path d="M130.53 299.638L221.321 247.427L234.243 269.236L230.015 283.743L134.883 340.992L130.53 299.638Z" fill="#AFBFFD"/>
<path d="M238.17 214.605C235.719 217.096 232.982 219.287 230.015 221.132L119.938 287.184L120.172 358.796L233.961 290.553C235.732 289.482 237.198 287.972 238.214 286.169C239.23 284.366 239.763 282.331 239.761 280.261V221.715C239.941 220.13 240.307 216.155 238.17 214.605ZM143.422 329.331L136.492 333.979V309.912L143.422 306.165V329.331ZM161.316 318.643L154.386 323.29V299.241L161.316 295.494V318.643ZM178.339 308.897L171.41 313.545V289.478L178.339 285.731V308.897ZM196.299 298.377L189.37 303.024V278.958L196.311 275.223L196.299 298.377ZM217.478 287.016C216.285 287.762 214.915 288.176 213.509 288.217C212.628 288.225 211.76 288.001 210.993 287.568C208.909 286.367 207.72 283.665 207.72 280.129C207.72 273.379 211.923 265.603 217.141 262.787C219.543 261.484 221.867 261.364 223.68 262.445C225.722 263.646 226.893 266.288 226.893 269.65C226.905 276.171 222.684 283.947 217.49 287.016H217.478Z" fill="#0C0C4E"/>
<path d="M119.938 287.178L120.172 358.79L6.13094 290.367C4.27393 289.251 2.73726 287.673 1.67033 285.788C0.603391 283.902 0.0424997 281.773 0.0421852 279.606V222.309C0.0421852 222.309 -0.600316 214.852 3.18864 213.717L2.48009 216.407L10.4303 221.138L13.2105 222.796L119.938 287.178Z" fill="url(#paint0_linear_616_615)"/>
<path d="M237.546 216.611L230.016 221.132L120.178 156.528L10.4423 221.144L2.48604 216.413C2.35975 216.336 2.25083 216.235 2.16629 216.114C2.08175 215.993 2.02347 215.855 1.99518 215.711C1.9669 215.566 1.96925 215.417 2.00208 215.273C2.03492 215.129 2.0975 214.994 2.18581 214.875C2.58179 214.379 3.03305 213.93 3.53086 213.536L3.65095 213.452L5.64451 212.251L13.8589 207.322L109.213 150.103L112.27 148.271C118.34 144.627 122.688 145.341 127.984 148.518L131.028 150.319L238.152 214.569C238.855 215.02 238.53 216.191 237.546 216.611Z" fill="#FCFCFC"/>
<path d="M120.178 156.528L10.4424 221.145L13.2105 222.796L119.938 287.178L230.016 221.127L120.178 156.528Z" fill="#AFBFFD"/>
<g style="mix-blend-mode:soft-light">
<path d="M121.865 250.057C153.194 250.057 178.591 235.854 178.591 218.334C178.591 200.814 153.194 186.612 121.865 186.612C90.5359 186.612 65.1387 200.814 65.1387 218.334C65.1387 235.854 90.5359 250.057 121.865 250.057Z" fill="#5B5637"/>
<path d="M121.865 250.057C153.194 250.057 178.591 235.854 178.591 218.334C178.591 200.814 153.194 186.612 121.865 186.612C90.5359 186.612 65.1387 200.814 65.1387 218.334C65.1387 235.854 90.5359 250.057 121.865 250.057Z" stroke="#211E11" stroke-width="2" stroke-miterlimit="10"/>
</g>
<path d="M223.693 168.489C221.891 167.409 219.555 167.529 217.154 168.832C211.965 171.648 207.762 179.424 207.762 186.173C207.762 189.71 208.963 192.424 211.035 193.613C211.802 194.046 212.67 194.269 213.551 194.262C214.957 194.221 216.327 193.807 217.52 193.061C222.714 189.992 226.935 182.216 226.935 175.725C226.905 172.332 225.734 169.702 223.693 168.489Z" stroke="#231F20" stroke-miterlimit="10"/>
<path d="M130.53 205.664L221.321 153.454L234.243 175.263L230.015 189.77L134.883 247.019L130.53 205.664Z" fill="#AFBFFD"/>
<path d="M238.17 120.632C235.719 123.122 232.982 125.313 230.015 127.159L119.938 193.211L120.172 264.823L233.961 196.561C235.732 195.491 237.198 193.981 238.214 192.178C239.23 190.375 239.763 188.339 239.761 186.269V127.742C239.941 126.156 240.307 122.181 238.17 120.632ZM143.422 235.358L136.492 240.005V215.938L143.422 212.173V235.358ZM161.316 224.669L154.386 229.317V205.25L161.316 201.503V224.669ZM178.339 214.924L171.41 219.571V195.504L178.339 191.757V214.924ZM196.299 204.403L189.37 209.051V184.984L196.299 181.237V204.403ZM217.478 193.042C216.285 193.788 214.915 194.203 213.509 194.243C212.628 194.251 211.76 194.028 210.993 193.595C208.909 192.394 207.72 189.692 207.72 186.155C207.72 179.406 211.923 171.63 217.141 168.814C219.543 167.511 221.867 167.39 223.68 168.471C225.722 169.672 226.893 172.314 226.893 175.677C226.905 182.198 222.684 189.956 217.49 193.042H217.478Z" fill="#0C0C4E"/>
<path d="M119.938 193.205L120.172 264.817L6.13094 196.393C4.27393 195.277 2.73726 193.7 1.67033 191.814C0.603391 189.929 0.0424997 187.799 0.0421852 185.633V128.336C0.0421852 128.336 -0.600316 120.902 3.18864 119.743L2.48009 122.433L10.4303 127.165L13.2105 128.822L119.938 193.205Z" fill="url(#paint1_linear_616_615)"/>
<path d="M237.546 122.638L230.016 127.159L120.178 62.5547L10.4423 127.171L2.48604 122.439C2.35975 122.363 2.25083 122.261 2.16629 122.14C2.08175 122.019 2.02347 121.882 1.99518 121.737C1.9669 121.593 1.96925 121.443 2.00208 121.3C2.03492 121.156 2.0975 121.02 2.18581 120.902C2.58179 120.406 3.03305 119.957 3.53086 119.563L3.65095 119.479L5.64451 118.278L13.8589 113.348L109.213 56.1296L112.27 54.3282C118.34 50.6834 122.688 51.398 127.984 54.5744L131.028 56.3758L238.152 120.626C238.855 121.046 238.53 122.217 237.546 122.638Z" fill="#FCFCFC"/>
<path d="M120.178 62.5547L10.4424 127.171L13.2105 128.822L119.938 193.205L230.016 127.153L120.178 62.5547Z" fill="#AFBFFD"/>
<g style="mix-blend-mode:soft-light">
<path d="M121.865 156.084C153.194 156.084 178.591 141.881 178.591 124.361C178.591 106.841 153.194 92.6382 121.865 92.6382C90.5359 92.6382 65.1387 106.841 65.1387 124.361C65.1387 141.881 90.5359 156.084 121.865 156.084Z" fill="#5B5637"/>
<path d="M121.865 156.084C153.194 156.084 178.591 141.881 178.591 124.361C178.591 106.841 153.194 92.6382 121.865 92.6382C90.5359 92.6382 65.1387 106.841 65.1387 124.361C65.1387 141.881 90.5359 156.084 121.865 156.084Z" stroke="#211E11" stroke-width="2" stroke-miterlimit="10"/>
</g>
<g style="mix-blend-mode:soft-light">
<path d="M160.037 109.728L148.46 96.3551L124.687 96.205L136.937 109.535L160.037 109.728Z" fill="#5B5637" stroke="#685D2E" stroke-width="2.48" stroke-miterlimit="10"/>
<path d="M148.46 96.3551L160.805 82.2201L124.687 96.205L148.46 96.3551Z" fill="#5B5637" stroke="#685D2E" stroke-width="2.48" stroke-miterlimit="10"/>
<path d="M160.037 109.728L160.806 82.2201L148.46 96.3551L160.037 109.728Z" fill="#5B5637" stroke="#685D2E" stroke-width="2.48" stroke-miterlimit="10"/>
<path d="M154.302 115.858L142.743 102.894L121.163 127.591L154.302 115.858Z" fill="#5B5637" stroke="#685D2E" stroke-width="2.48" stroke-miterlimit="10"/>
<path d="M121.162 127.591L142.743 102.894L119.391 102.726L121.162 127.591Z" fill="#5B5637" stroke="#685D2E" stroke-width="2.48" stroke-miterlimit="10"/>
</g>
<path d="M144.016 86.6155L119.788 101.153L95.5586 86.6155L119.788 72.0781L144.016 86.6155Z" fill="url(#paint2_angular_616_615)" stroke="#231F20" stroke-width="0.41" stroke-miterlimit="10"/>
<path d="M119.788 101.153V130.228L95.5586 86.6155L119.788 101.153Z" fill="url(#paint3_angular_616_615)" stroke="#231F20" stroke-width="0.41" stroke-miterlimit="10"/>
<path d="M144.017 86.6155L119.788 130.228V101.153L144.017 86.6155Z" fill="url(#paint4_angular_616_615)" stroke="#231F20" stroke-width="0.41" stroke-miterlimit="10"/>
<path d="M144.017 72.4324L119.788 86.9697V28.8203L144.017 72.4324Z" fill="url(#paint5_angular_616_615)" stroke="#231F20" stroke-width="0.41" stroke-miterlimit="10"/>
<path d="M119.788 28.8203V86.9697L95.5586 72.4324L119.788 28.8203Z" fill="url(#paint6_angular_616_615)" stroke="#231F20" stroke-width="0.41" stroke-miterlimit="10"/>
<defs>
<linearGradient id="paint0_linear_616_615" x1="0.000976562" y1="286.253" x2="120.172" y2="286.253" gradientUnits="userSpaceOnUse">
<stop stop-color="#EC796B"/>
<stop offset="1" stop-color="#D672EF"/>
</linearGradient>
<linearGradient id="paint1_linear_616_615" x1="0.000976562" y1="192.28" x2="120.172" y2="192.28" gradientUnits="userSpaceOnUse">
<stop stop-color="#EC796B"/>
<stop offset="1" stop-color="#D672EF"/>
</linearGradient>
<radialGradient id="paint2_angular_616_615" cx="0" cy="0" r="1" gradientUnits="userSpaceOnUse" gradientTransform="translate(119.788 86.6155) rotate(90) scale(14.5373 24.2289)">
<stop offset="0.56" stop-color="#FFAEA3"/>
<stop offset="0.815" stop-color="#E1A1F1"/>
<stop offset="1" stop-color="#1414B6" stop-opacity="0.25"/>
</radialGradient>
<radialGradient id="paint3_angular_616_615" cx="0" cy="0" r="1" gradientUnits="userSpaceOnUse" gradientTransform="translate(107.673 108.422) rotate(90) scale(21.806 12.1145)">
<stop offset="0.56" stop-color="#FFAEA3"/>
<stop offset="0.815" stop-color="#E1A1F1"/>
<stop offset="1" stop-color="#1414B6" stop-opacity="0.25"/>
</radialGradient>
<radialGradient id="paint4_angular_616_615" cx="0" cy="0" r="1" gradientUnits="userSpaceOnUse" gradientTransform="translate(131.902 108.422) rotate(90) scale(21.806 12.1145)">
<stop offset="0.56" stop-color="#FFAEA3"/>
<stop offset="0.815" stop-color="#E1A1F1"/>
<stop offset="1" stop-color="#1414B6" stop-opacity="0.25"/>
</radialGradient>
<radialGradient id="paint5_angular_616_615" cx="0" cy="0" r="1" gradientUnits="userSpaceOnUse" gradientTransform="translate(131.902 57.895) rotate(90) scale(29.0747 12.1145)">
<stop offset="0.56" stop-color="#FFAEA3"/>
<stop offset="0.815" stop-color="#E1A1F1"/>
<stop offset="1" stop-color="#1414B6" stop-opacity="0.25"/>
</radialGradient>
<radialGradient id="paint6_angular_616_615" cx="0" cy="0" r="1" gradientUnits="userSpaceOnUse" gradientTransform="translate(107.673 57.895) rotate(90) scale(29.0747 12.1145)">
<stop offset="0.56" stop-color="#FFAEA3"/>
<stop offset="0.815" stop-color="#E1A1F1"/>
<stop offset="1" stop-color="#1414B6" stop-opacity="0.25"/>
</radialGradient>
</defs>
</svg>
