<svg width="436" height="408" viewBox="0 0 436 408" fill="none" xmlns="http://www.w3.org/2000/svg">
<g clip-path="url(#clip0_630_656)">
<g style="mix-blend-mode:luminosity">
<path d="M243.104 -110.25V126.018L463.732 259.174L217.617 406.843L-3.01123 273.687V37.4188L243.104 -110.25Z" fill="#FBFBFF"/>
<path d="M243.104 -38.8229V112.504" stroke="#4E484F" stroke-width="2" stroke-miterlimit="10" stroke-dasharray="15.12 11.34 15.12 11.34 15.12 11.34"/>
<path d="M243.104 118.109V126.018L249.875 130.101" stroke="#4E484F" stroke-width="2" stroke-miterlimit="10"/>
<path d="M260.404 136.458L304.279 162.943" stroke="#4E484F" stroke-width="2" stroke-miterlimit="10" stroke-dasharray="16.59 12.44 16.59 12.44"/>
<path d="M309.548 166.116L451.701 251.908" stroke="#4E484F" stroke-width="2" stroke-miterlimit="10" stroke-dasharray="16.59 12.44 16.59 12.44 16.59 12.44"/>
<path d="M445.126 270.336L395.854 299.895" stroke="#4E484F" stroke-width="2" stroke-miterlimit="10" stroke-dasharray="18.6 13.95 18.6 13.95"/>
<path d="M389.942 303.444L230.311 399.221" stroke="#4E484F" stroke-width="2" stroke-miterlimit="10" stroke-dasharray="18.6 13.95 18.6 13.95 18.6 13.95"/>
<path d="M224.399 402.77L217.617 406.843L210.845 402.75" stroke="#4E484F" stroke-width="2" stroke-miterlimit="10"/>
<path d="M200.316 396.404L156.442 369.919" stroke="#4E484F" stroke-width="2" stroke-miterlimit="10" stroke-dasharray="16.59 12.44 16.59 12.44"/>
<path d="M151.173 366.745L9.02002 280.954" stroke="#4E484F" stroke-width="2" stroke-miterlimit="10" stroke-dasharray="16.59 12.44 16.59 12.44 16.59 12.44"/>
<path d="M3.76076 277.77L-3.01123 273.687V265.778" stroke="#4E484F" stroke-width="2" stroke-miterlimit="10"/>
<path d="M-3.01123 45.3277V37.4188L3.77065 33.3457" stroke="#4E484F" stroke-width="2" stroke-miterlimit="10"/>
<path d="M15.5942 26.2475L64.8667 -3.31201" stroke="#4E484F" stroke-width="2" stroke-miterlimit="10" stroke-dasharray="18.6 13.95 18.6 13.95"/>
</g>
<path d="M-3.01123 273.687L243.104 126.018" stroke="#4E484F" stroke-width="2" stroke-miterlimit="10" stroke-dasharray="16 12 16 12 16 12"/>
<path d="M343.003 114.165C345.866 115.885 348.236 118.317 349.881 121.224C351.527 124.13 352.393 127.413 352.395 130.754V293.193C352.395 298.205 347.887 304.819 334.55 300.963L106.29 154.48L97.3923 -6.4261C97.0859 -12.081 100.764 -15.4126 105.885 -17.8347L108.425 -19.0705C110.591 -20.0921 112.975 -20.5644 115.367 -20.4454C117.758 -20.3264 120.084 -19.6199 122.137 -18.3883L343.003 114.165Z" fill="#0C0C4E"/>
<path d="M343.448 139.325V157.565L97.333 9.89593V-5.48687C97.334 -6.90496 97.7111 -8.29741 98.4259 -9.5222C99.1406 -10.747 100.167 -11.7603 101.402 -12.4588C102.636 -13.1572 104.033 -13.5159 105.451 -13.4982C106.869 -13.4804 108.257 -13.0869 109.473 -12.3577L333.75 122.202C336.708 123.975 339.156 126.485 340.856 129.485C342.555 132.486 343.448 135.876 343.448 139.325Z" fill="#0C0C4E"/>
<path d="M343.448 157.565V294.982C343.449 296.124 343.145 297.245 342.568 298.231C341.992 299.217 341.163 300.031 340.167 300.59C339.171 301.149 338.044 301.432 336.902 301.411C335.76 301.389 334.645 301.064 333.671 300.469L107.051 162.241C104.082 160.431 101.629 157.889 99.9274 154.857C98.2255 151.825 97.332 148.407 97.333 144.93V9.89587L343.448 157.565Z" fill="#FCFCFC"/>
<path d="M113.22 48.9559L113.2 108.016L146.556 128.025V68.9555L113.22 48.9559Z" fill="#F2F2F2"/>
<path d="M302.173 162.528L302.134 188.904L321.896 200.293L321.926 173.907L302.173 162.528Z" fill="#F2F2F2"/>
<g style="mix-blend-mode:color-dodge">
<path d="M113.18 -1.19637C110.946 -2.49145 109.117 -0.435139 109.117 3.39079C109.117 7.21672 110.966 11.4084 113.21 12.7035C115.454 13.9986 117.283 11.9522 117.273 8.12624C117.263 4.30031 115.425 0.108598 113.18 -1.19637Z" fill="#0C0C4E"/>
</g>
<g style="mix-blend-mode:color-dodge">
<path d="M126.012 6.27751C123.768 4.98243 121.949 7.03874 121.949 10.8647C121.949 14.6906 123.798 18.8823 126.042 20.1774C128.286 21.4725 130.115 19.4261 130.105 15.6001C130.095 11.7742 128.257 7.62202 126.012 6.27751Z" fill="#0C0C4E"/>
</g>
<g style="mix-blend-mode:color-dodge">
<path d="M138.706 13.5538C136.462 12.2587 134.643 14.315 134.643 18.1409C134.643 21.9668 136.492 26.1586 138.736 27.4536C140.98 28.7487 142.809 26.7023 142.799 22.8764C142.789 19.0504 140.95 14.8192 138.706 13.5538Z" fill="#0C0C4E"/>
</g>
<path d="M302.173 195.271L302.134 221.647L321.896 233.036L321.926 206.649L302.173 195.271Z" fill="url(#paint0_linear_630_656)"/>
<path d="M113.21 120.413L113.2 145.168L146.556 165.177L146.546 140.412L113.21 120.413Z" fill="#F2F2F2"/>
<path d="M162.937 78.7922L162.957 165.424L294.225 243.02V157.565L162.937 78.7922Z" fill="#F2F2F2"/>
<path d="M188.038 137.565L273.217 188.212" stroke="#0C0C4E" stroke-width="2" stroke-miterlimit="10"/>
<path d="M169.274 112.207L242.649 154.194" stroke="#0C0C4E" stroke-width="2" stroke-miterlimit="10"/>
<path d="M254.305 161.618L273.217 171.84" stroke="#0C0C4E" stroke-width="2" stroke-miterlimit="10"/>
<path d="M207.998 162.132V180.876" stroke="#0C0C4E" stroke-width="2" stroke-miterlimit="10"/>
<path d="M245.002 172.325V201.924" stroke="#0C0C4E" stroke-width="2" stroke-miterlimit="10"/>
<path d="M228.581 162.656V192.255" stroke="#0C0C4E" stroke-width="2" stroke-miterlimit="10"/>
<path d="M170.648 308.664L169.897 309.752C180.297 309.337 189.284 301.319 189.857 300.805C193.202 298.998 196.079 296.435 198.26 293.321L268.857 336.583C269.264 336.835 269.733 336.969 270.211 336.969C270.69 336.969 271.159 336.835 271.566 336.583L274.106 334.981C275.111 334.191 275.923 333.184 276.483 332.035C277.043 330.886 277.336 329.626 277.339 328.348V320.834C277.338 318.577 276.759 316.358 275.657 314.388C274.554 312.419 272.965 310.765 271.042 309.584L205.586 269.387C205.665 268.072 205.704 266.708 205.704 265.324C205.704 231.563 184.054 190.347 157.569 173.729C147.109 167.164 137.421 165.365 129.482 167.708L129.166 167.787C126.269 168.598 103.729 175.311 102.246 192.68C102.187 193.274 102.167 193.887 102.167 194.49C99.7594 200.904 98.5952 207.718 98.7366 214.568C98.7366 246.995 119.497 286.579 144.954 302.555C151.924 306.915 158.538 309.089 164.489 309.267C164.45 309.277 164.41 309.277 164.371 309.267L169.877 309.801M204.854 276.683L204.716 277.019C204.815 276.584 204.874 276.129 204.953 275.674L204.854 276.683Z" fill="#27213A"/>
<path d="M270.182 336.079C270.185 336.196 270.157 336.312 270.1 336.414C270.044 336.517 269.961 336.603 269.861 336.663C269.76 336.724 269.645 336.756 269.528 336.758C269.411 336.759 269.295 336.73 269.193 336.672L189.383 287.884C186.298 299.391 179.576 306.667 170.599 308.645C163.244 310.325 154.396 308.447 144.895 302.505C119.478 286.539 98.6775 246.955 98.6775 214.519C98.5589 207.675 99.7432 200.871 102.167 194.47C109.088 177.327 125.696 172.532 144.954 184.584C169.482 199.996 189.719 237.415 191.093 269.15L265.298 314.537C268.62 316.247 269.866 317.354 269.737 322.011L270.182 336.079Z" fill="#FCFCFC"/>
<path d="M172.349 284.097C171.125 285.833 169.649 287.376 167.969 288.675C161.711 293.45 151.549 291.453 144.678 287.053C126.23 275.269 111.144 246.006 111.144 222.042C111.042 216.987 111.887 211.957 113.635 207.213C114.999 203.419 117.476 200.125 120.743 197.762C119.769 199.223 118.953 200.784 118.311 202.418C116.567 207.163 115.725 212.193 115.83 217.247C115.83 241.211 130.926 270.454 149.354 282.258C156.155 286.579 166.042 288.596 172.349 284.097Z" fill="#27213A"/>
<path d="M172.349 284.097C166.071 288.595 156.106 286.579 149.354 282.258C130.926 270.454 115.83 241.211 115.83 217.247C115.725 212.193 116.567 207.163 118.311 202.418C118.953 200.784 119.769 199.223 120.743 197.762C126.813 193.58 135.306 193.975 144.658 199.927C162.453 211.316 177.144 238.967 178.152 262.437C178.172 262.427 178.726 275.111 172.349 284.097Z" fill="url(#paint1_linear_630_656)"/>
</g>
<defs>
<linearGradient id="paint0_linear_630_656" x1="302.134" y1="214.153" x2="321.926" y2="214.153" gradientUnits="userSpaceOnUse">
<stop stop-color="#EC796B"/>
<stop offset="1" stop-color="#D672EF"/>
</linearGradient>
<linearGradient id="paint1_linear_630_656" x1="115.821" y1="240.811" x2="178.172" y2="240.811" gradientUnits="userSpaceOnUse">
<stop stop-color="#EC796B"/>
<stop offset="1" stop-color="#D672EF"/>
</linearGradient>
<clipPath id="clip0_630_656">
<rect width="469.65" height="520" fill="white" transform="translate(-4 -112)"/>
</clipPath>
</defs>
</svg>
