<svg width="611" height="100" viewBox="0 0 611 100" fill="none" xmlns="http://www.w3.org/2000/svg">
<path d="M450.565 73H443.693L459.135 30.0909H466.614L482.056 73H475.184L463.053 37.8849H462.717L450.565 73ZM451.718 56.1967H474.01V61.6442H451.718V56.1967ZM502.892 40.8182V45.8466H484.706V40.8182H502.892ZM489.693 73V37.0888C489.693 35.0774 490.133 33.4083 491.013 32.0813C491.893 30.7404 493.059 29.7417 494.512 29.0852C495.964 28.4148 497.543 28.0795 499.247 28.0795C500.504 28.0795 501.579 28.1843 502.473 28.3938C503.367 28.5894 504.031 28.7709 504.464 28.9386L502.997 34.0089C502.704 33.9251 502.327 33.8273 501.866 33.7156C501.405 33.5898 500.846 33.527 500.189 33.527C498.667 33.527 497.577 33.9041 496.921 34.6584C496.278 35.4126 495.957 36.5021 495.957 37.9268V73H489.693ZM509.356 73V40.8182H515.411V45.9304H515.746C516.333 44.1984 517.366 42.8365 518.847 41.8448C520.342 40.8391 522.032 40.3363 523.917 40.3363C524.308 40.3363 524.769 40.3503 525.3 40.3782C525.845 40.4061 526.271 40.441 526.578 40.483V46.4751C526.327 46.4053 525.88 46.3285 525.237 46.2447C524.595 46.1469 523.952 46.098 523.31 46.098C521.829 46.098 520.509 46.4123 519.35 47.0408C518.204 47.6554 517.297 48.5144 516.626 49.6179C515.956 50.7074 515.62 51.9505 515.62 53.3473V73H509.356ZM531.999 73V40.8182H538.264V73H531.999ZM535.163 35.8526C534.074 35.8526 533.138 35.4895 532.356 34.7631C531.587 34.0228 531.203 33.1429 531.203 32.1232C531.203 31.0896 531.587 30.2096 532.356 29.4833C533.138 28.743 534.074 28.3729 535.163 28.3729C536.253 28.3729 537.181 28.743 537.95 29.4833C538.732 30.2096 539.123 31.0896 539.123 32.1232C539.123 33.1429 538.732 34.0228 537.95 34.7631C537.181 35.4895 536.253 35.8526 535.163 35.8526ZM560.248 73.6495C557.133 73.6495 554.451 72.9441 552.202 71.5334C549.967 70.1087 548.249 68.1462 547.048 65.646C545.847 63.1457 545.246 60.2823 545.246 57.0558C545.246 53.7873 545.861 50.9029 547.09 48.4027C548.319 45.8885 550.051 43.926 552.286 42.5153C554.521 41.1045 557.154 40.3991 560.185 40.3991C562.629 40.3991 564.808 40.8531 566.722 41.761C568.635 42.6549 570.179 43.912 571.352 45.5323C572.539 47.1526 573.245 49.0452 573.468 51.2102H567.371C567.036 49.7017 566.268 48.4027 565.066 47.3132C563.879 46.2237 562.287 45.679 560.289 45.679C558.543 45.679 557.014 46.1399 555.701 47.0618C554.402 47.9697 553.389 49.2687 552.663 50.9588C551.937 52.6349 551.574 54.6184 551.574 56.9091C551.574 59.2557 551.93 61.281 552.642 62.9851C553.354 64.6892 554.36 66.0091 555.659 66.945C556.972 67.8808 558.516 68.3487 560.289 68.3487C561.477 68.3487 562.552 68.1322 563.516 67.6992C564.494 67.2522 565.311 66.6167 565.967 65.7926C566.638 64.9685 567.106 63.9768 567.371 62.8175H573.468C573.245 64.8987 572.567 66.7564 571.436 68.3906C570.304 70.0249 568.789 71.3099 566.889 72.2457C565.004 73.1816 562.79 73.6495 560.248 73.6495ZM589.533 73.7124C587.493 73.7124 585.65 73.3352 584.002 72.581C582.353 71.8127 581.047 70.7023 580.084 69.2496C579.134 67.797 578.659 66.0161 578.659 63.907C578.659 62.0911 579.008 60.5966 579.706 59.4233C580.405 58.25 581.348 57.3211 582.535 56.6367C583.722 55.9523 585.049 55.4355 586.516 55.0863C587.982 54.7371 589.477 54.4717 590.999 54.2901C592.927 54.0666 594.491 53.8851 595.693 53.7454C596.894 53.5917 597.767 53.3473 598.312 53.0121C598.856 52.6768 599.129 52.1321 599.129 51.3778V51.2312C599.129 49.4014 598.612 47.9837 597.578 46.978C596.559 45.9723 595.036 45.4695 593.011 45.4695C590.902 45.4695 589.239 45.9374 588.024 46.8732C586.823 47.7951 585.992 48.8217 585.531 49.9531L579.644 48.6122C580.342 46.6567 581.362 45.0784 582.703 43.8771C584.057 42.6619 585.615 41.782 587.375 41.2372C589.135 40.6785 590.985 40.3991 592.927 40.3991C594.212 40.3991 595.574 40.5528 597.013 40.8601C598.465 41.1534 599.82 41.6982 601.077 42.4943C602.348 43.2905 603.389 44.4289 604.199 45.9094C605.009 47.3761 605.414 49.2827 605.414 51.6293V73H599.296V68.6001H599.045C598.64 69.4103 598.032 70.2064 597.222 70.9886C596.412 71.7708 595.371 72.4203 594.1 72.9371C592.829 73.454 591.307 73.7124 589.533 73.7124ZM590.895 68.6839C592.627 68.6839 594.107 68.3417 595.336 67.6573C596.58 66.9729 597.522 66.079 598.165 64.9755C598.821 63.8581 599.15 62.6638 599.15 61.3928V57.2443C598.926 57.4678 598.493 57.6773 597.851 57.8729C597.222 58.0545 596.503 58.2151 595.693 58.3548C594.882 58.4805 594.093 58.5992 593.325 58.7109C592.557 58.8087 591.914 58.8925 591.397 58.9624C590.182 59.116 589.072 59.3744 588.066 59.7376C587.074 60.1007 586.278 60.6245 585.678 61.3089C585.091 61.9794 584.798 62.8733 584.798 63.9908C584.798 65.5412 585.37 66.7145 586.516 67.5107C587.661 68.2929 589.121 68.6839 590.895 68.6839Z" fill="url(#paint0_linear_74_766)"/>
<path fillRule="evenodd" clipRule="evenodd" d="M0.102051 49.8494C0.102051 77.2899 22.3464 99.5339 49.7868 99.5339C77.2271 99.5339 99.4731 77.2899 99.4731 49.8494C99.4731 22.4089 77.2271 0.164551 49.7868 0.164551C22.3464 0.164551 0.102051 22.4089 0.102051 49.8494Z" fill="#0C0C4F"/>
<path fillRule="evenodd" clipRule="evenodd" d="M27.8719 38.1441L29.0984 34.3549C29.3477 33.5842 29.9559 32.9845 30.7295 32.748L34.5372 31.5771C35.0642 31.4161 35.0685 30.6725 34.5458 30.503L30.7551 29.2765C29.9859 29.0272 29.3861 28.4189 29.1483 27.6455L27.9787 23.8377C27.8178 23.3121 27.0742 23.3063 26.9046 23.8306L25.6781 27.6198C25.4288 28.389 24.8206 28.9887 24.0471 29.2267L20.2393 30.3962C19.7123 30.5585 19.7066 31.3007 20.2308 31.4702L24.0214 32.6967C24.7907 32.946 25.3904 33.5557 25.6283 34.3292L26.7978 38.1355C26.9588 38.6626 27.7024 38.6683 27.8719 38.1441Z" fill="#FAFAFA"/>
<path fillRule="evenodd" clipRule="evenodd" d="M88.0567 35.9387C86.4875 34.1834 84.0372 33.195 81.6554 32.7897C79.2548 32.4005 76.7372 32.4366 74.3674 32.8576C69.5718 33.6688 65.2152 35.6545 61.4153 38.1041C59.442 39.3063 57.7593 40.6974 56.0159 42.1141C55.1759 42.8307 54.41 43.5936 53.6124 44.3457L51.433 46.5141C49.065 48.9895 46.7308 51.244 44.4725 53.1127C42.205 54.9729 40.0851 56.3857 37.9959 57.3722C35.908 58.3639 33.674 58.9471 30.7621 59.0405C27.8758 59.1423 24.461 58.6213 20.8083 57.7615C17.1359 56.9055 13.2796 55.6853 8.97021 54.6354C10.4739 58.8069 12.7381 62.4932 15.6452 65.8627C18.5864 69.174 22.2591 72.1923 26.9771 74.1772C31.627 76.2061 37.4704 76.9344 42.9342 75.8357C48.4124 74.781 53.2198 72.2457 57.1058 69.3143C61.0017 66.3527 64.1536 62.9791 66.8108 59.4713C67.5441 58.5024 67.9322 57.96 68.463 57.2025L69.9303 55.0293C70.9498 53.685 71.8781 52.1544 72.8875 50.8225C74.8661 48.0331 76.8164 45.2469 79.0831 42.68C80.224 41.378 81.4271 40.1327 82.8473 38.9359C83.5561 38.3517 84.3209 37.78 85.1686 37.2651C86.029 36.7096 86.9378 36.2748 88.0567 35.9387Z" fill="#EC796B"/>
<path fillRule="evenodd" clipRule="evenodd" d="M88.0567 35.9388C86.3705 31.6835 83.2353 28.1014 79.0278 25.4582C74.8447 22.844 69.0359 21.5099 63.28 22.6471C60.4359 23.1971 57.6807 24.256 55.2631 25.6661C52.8562 27.0706 50.6995 28.7612 48.8324 30.575C47.9003 31.4849 47.0542 32.4341 46.2137 33.3887L44.0352 36.1662L40.6705 40.6371C36.381 46.3896 31.7619 53.1311 24.1815 55.1287C16.7398 57.0897 13.5122 55.353 8.97021 54.6354C9.80072 56.7796 10.8294 58.8618 12.2241 60.6935C13.5927 62.5624 15.2092 64.3177 17.219 65.8221C18.2347 66.5447 19.307 67.2579 20.498 67.863C21.6835 68.4473 22.962 68.9617 24.3267 69.3491C27.0412 70.0932 30.0972 70.3535 33.0561 69.9535C36.0164 69.5586 38.846 68.6202 41.3193 67.3743C43.8109 66.1403 45.9813 64.6372 47.9194 63.051C51.7719 59.8515 54.7685 56.3166 57.2998 52.7433C58.573 50.9568 59.7287 49.1365 60.7976 47.3158L62.0556 45.1481C62.4402 44.5144 62.8293 43.8769 63.2246 43.2832C64.8183 40.8976 66.3775 38.9849 68.2712 37.5491C70.1385 36.0764 72.7391 34.9881 76.2139 34.7354C79.6743 34.4795 83.6693 34.9521 88.0567 35.9388Z" fill="#FAFAFA"/>
<path fillRule="evenodd" clipRule="evenodd" d="M69.3354 71.2951C69.3354 74.4203 71.8707 76.9555 74.9958 76.9555C78.1216 76.9555 80.6531 74.4203 80.6531 71.2951C80.6531 68.17 78.1216 65.6348 74.9958 65.6348C71.8707 65.6348 69.3354 68.17 69.3354 71.2951Z" fill="#EC796B"/>
<path d="M434.337 35.9563V30.2409C434.337 30.0143 434.154 29.8306 433.927 29.8306H401.361C401.135 29.8306 400.951 30.0143 400.951 30.2409V35.9563H414.186V72.9314H421.101V35.9563H434.337Z" fill="#0C0C4F"/>
<path d="M366.915 29.8306C366.688 29.8306 366.504 30.0142 366.504 30.2409V72.5207C366.504 72.7471 366.688 72.9314 366.915 72.9314H394.32C394.547 72.9314 394.73 72.7471 394.73 72.5207V66.866H373.419V53.3205H391.026V47.3769H373.419V35.8956H393.213V30.2409C393.213 30.0143 393.029 29.8306 392.802 29.8306H366.915Z" fill="#0C0C4F"/>
<path d="M351.023 72.6804L351.172 72.9314H356.484C356.711 72.9314 356.895 72.7471 356.895 72.5207V30.2409C356.895 30.0143 356.711 29.8306 356.484 29.8306H350.101V59.6801C348.993 57.9157 347.706 55.9734 346.241 53.8537C344.375 51.0951 342.367 48.2967 340.218 45.4584C338.11 42.5798 335.961 39.8021 333.771 37.1254C331.619 34.4062 329.587 32.0279 327.673 29.9921L327.522 29.8306H322.522C322.295 29.8306 322.112 30.0142 322.112 30.2409V72.5207C322.112 72.7471 322.295 72.9314 322.522 72.9314H328.906V40.9545C329.778 41.9852 330.707 43.1275 331.693 44.3817C333.024 46.0764 334.397 47.8928 335.811 49.8313L335.812 49.8333L335.814 49.8354C337.226 51.7322 338.639 53.7101 340.052 55.7692L340.054 55.772L340.056 55.7748C341.51 57.8349 342.903 59.8745 344.236 61.8937L344.237 61.8957L344.239 61.8976C345.57 63.8748 346.8 65.7911 347.929 67.6459L347.931 67.649L347.934 67.6528C349.106 69.5113 350.136 71.1874 351.023 72.6804Z" fill="#0C0C4F"/>
<path d="M313.76 30.689L313.917 30.5173C314.157 30.2539 313.97 29.8306 313.613 29.8306H306.042L305.889 30.0086C304.884 31.1743 303.635 32.5442 302.141 34.119C300.686 35.655 299.129 37.2725 297.471 38.9708C295.814 40.6686 294.136 42.3664 292.439 44.0643C291.081 45.39 289.813 46.6119 288.637 47.73V29.8306H282.132C281.906 29.8306 281.722 30.0142 281.722 30.2409V72.5207C281.722 72.7471 281.906 72.9314 282.132 72.9314H288.637V53.3781C290.064 54.313 291.524 55.4069 293.015 56.6609L293.018 56.6627L293.02 56.6645C294.826 58.1496 296.593 59.7762 298.322 61.5446L298.325 61.5488L298.33 61.553C300.096 63.2798 301.763 65.1069 303.33 67.0345L303.331 67.0364L303.333 67.0389C304.899 68.9264 306.283 70.8113 307.484 72.6943L307.635 72.9314H315.015C315.331 72.9314 315.528 72.5899 315.371 72.3163L315.283 72.1628C314.176 70.2352 312.785 68.2119 311.115 66.0924C309.486 63.976 307.737 61.9013 305.866 59.8675C303.994 57.8334 302.082 55.9207 300.128 54.1295C298.358 52.5072 296.667 51.1142 295.055 49.9525C296.426 48.6143 297.879 47.1774 299.415 45.6418C301.117 43.9403 302.818 42.2187 304.519 40.4769C306.261 38.6944 307.922 36.9725 309.503 35.3112L309.505 35.3089L309.507 35.3067C311.086 33.6058 312.504 32.0665 313.76 30.689Z" fill="#0C0C4F"/>
<path fillRule="evenodd" clipRule="evenodd" d="M242.469 29.5078C242.242 29.5078 242.059 29.6915 242.059 29.9181V72.5468C242.059 72.7738 242.242 72.9575 242.469 72.9575H248.328V57.284H256.888C257.851 58.437 258.79 59.6434 259.706 60.9032L259.71 60.908L259.713 60.9127C261.211 62.877 262.596 64.926 263.867 67.0606L263.868 67.0625L263.869 67.065C265.02 68.9537 266.025 70.8191 266.883 72.6612L267.021 72.9575H273.955C274.252 72.9575 274.45 72.6512 274.327 72.3807C273.53 70.6336 272.666 68.9222 271.706 67.2556C270.401 64.926 268.971 62.6193 267.414 60.3361C266.524 59.0312 265.615 57.7637 264.688 56.5333C267.274 55.7426 269.32 54.3127 270.8 52.2373L270.801 52.2356C272.578 49.7239 273.459 46.7698 273.459 43.3958C273.459 41.0772 273.055 38.9557 272.24 37.0388C271.421 35.0939 270.189 33.481 268.547 32.2086C266.917 30.9293 264.909 30.1154 262.544 29.7504C261.992 29.6487 261.422 29.5878 260.835 29.5671C260.261 29.5276 259.76 29.5075 259.335 29.5075C257.537 29.5075 255.739 29.5073 253.942 29.5071C250.117 29.5068 246.293 29.5065 242.469 29.5078ZM267.071 43.3958C267.071 44.5156 266.885 45.6175 266.51 46.7037C266.144 47.7468 265.559 48.6612 264.751 49.4514C263.985 50.1995 262.975 50.7302 261.695 51.0271C261.289 51.1192 260.853 51.1845 260.384 51.222L260.383 51.222L260.382 51.2221C259.921 51.2605 259.514 51.2793 259.158 51.2793H248.328V35.5122H259.158C259.514 35.5122 259.921 35.531 260.382 35.5694L260.393 35.5703L260.405 35.5707C260.86 35.589 261.283 35.6526 261.675 35.7593L261.688 35.7629L261.701 35.7657C262.976 36.0429 263.982 36.5715 264.747 37.3359L264.749 37.338L264.751 37.34C265.558 38.129 266.143 39.0526 266.51 40.116V40.1173L266.511 40.1187C266.884 41.1839 267.071 42.2756 267.071 43.3958Z" fill="#0C0C4F"/>
<path fillRule="evenodd" clipRule="evenodd" d="M226.674 67.2408L226.675 67.2427L226.675 67.2446C227.284 68.9892 227.933 70.7742 228.623 72.5993L228.748 72.9314H235.684C235.969 72.9314 236.167 72.6484 236.07 72.3804C234.555 68.2175 233.025 64.0597 231.465 59.9137C230.047 56.1061 228.65 52.5003 227.272 49.0964C225.935 45.6924 224.597 42.4497 223.259 39.3685C221.917 36.2369 220.504 33.1363 219.033 30.0633C218.965 29.921 218.821 29.8306 218.663 29.8306H213.131C212.973 29.8306 212.829 29.921 212.761 30.0633C211.289 33.1364 209.877 36.237 208.535 39.3687C207.197 42.4489 205.84 45.6906 204.463 49.0938L204.462 49.0962L204.461 49.0987C203.124 52.5015 201.747 56.1065 200.33 59.9135C198.769 64.0597 197.239 68.2175 195.724 72.3804C195.626 72.6484 195.825 72.9314 196.109 72.9314H202.75L202.75 72.9308H202.88L203.032 72.7672C204.634 71.0477 206.425 69.3597 208.404 67.7043L208.406 67.7031L208.408 67.7012C210.396 66.0043 212.468 64.4308 214.625 62.9798L214.63 62.9767L214.634 62.9729C216.758 61.4719 218.897 60.1248 221.048 58.9316L221.051 58.9302L221.053 58.9287C221.828 58.4877 222.591 58.0769 223.342 57.6961L224.794 61.8424L224.795 61.8455C225.441 63.6645 226.068 65.4628 226.674 67.2408ZM219.212 46.7962L219.213 46.7997L219.214 46.8032C219.799 48.2823 220.383 49.786 220.967 51.3147C220.924 51.334 220.879 51.354 220.834 51.3746C218.778 52.3111 216.568 53.5216 214.205 55.0037C211.943 56.4226 209.698 57.9642 207.472 59.6282L208.414 56.936C209.662 53.4367 210.909 50.058 212.156 46.7996C213.302 43.8611 214.497 41.0347 215.738 38.3203C216.943 41.0336 218.101 43.8589 219.212 46.7962Z" fill="#0C0C4F"/>
<path d="M197.417 35.9563V30.2409C197.417 30.0143 197.233 29.8306 197.006 29.8306H164.441C164.214 29.8306 164.031 30.0143 164.031 30.2409V35.9563H177.266V72.5207C177.266 72.7471 177.45 72.9314 177.677 72.9314H183.771C183.997 72.9314 184.181 72.7471 184.181 72.5207V35.9563H197.417Z" fill="#0C0C4F"/>
<path d="M134.15 72.407L134.148 72.4064C131.639 71.3372 129.553 69.8108 127.899 67.8259L127.897 67.8234L127.895 67.8215C126.258 65.8114 125.195 63.4416 124.701 60.7245C124.677 60.5886 124.707 60.4485 124.787 60.3359C124.867 60.2232 124.989 60.1476 125.126 60.1261L130.642 59.2568C130.903 59.2156 131.153 59.3796 131.218 59.6356C131.889 62.2401 133.268 64.2617 135.36 65.7271C137.483 67.18 139.987 67.9139 142.893 67.9139C144.778 67.9139 146.462 67.6227 147.953 67.0498C149.461 66.4573 150.633 65.6265 151.487 64.5674C152.328 63.5259 152.753 62.2924 152.753 60.8426C152.753 59.9425 152.593 59.2058 152.297 58.6137C152.294 58.6084 152.292 58.603 152.289 58.5976C152.001 57.9669 151.599 57.44 151.08 57.0108C151.075 57.0067 151.07 57.0025 151.065 56.9983C150.544 56.5334 149.946 56.1403 149.269 55.8203C148.576 55.493 147.853 55.223 147.1 55.0108L147.094 55.0088L136.09 51.7408C134.865 51.3734 133.681 50.9139 132.538 50.3625L132.534 50.361L132.531 50.3593C131.37 49.7786 130.329 49.0615 129.412 48.2073L129.41 48.2045L129.408 48.203C128.478 47.3157 127.741 46.261 127.196 45.044L127.195 45.041C126.64 43.783 126.372 42.3206 126.372 40.6672C126.372 38.0166 127.056 35.7278 128.45 33.8286L128.45 33.8278C129.849 31.9278 131.735 30.4839 134.09 29.4923C136.442 28.5021 139.08 28.0227 141.997 28.0431C144.953 28.0635 147.612 28.5937 149.965 29.6456C152.335 30.6764 154.301 32.1649 155.853 34.1103C157.429 36.06 158.48 38.3866 159.014 41.077C159.041 41.2124 159.012 41.353 158.934 41.4669C158.856 41.5807 158.736 41.6583 158.6 41.6821L152.934 42.6713C152.799 42.6948 152.661 42.6638 152.55 42.5852C152.438 42.5065 152.363 42.3867 152.34 42.2523C152.054 40.5735 151.419 39.1496 150.441 37.9659L150.436 37.959C149.47 36.7466 148.258 35.8178 146.793 35.1707L146.788 35.1684C145.319 34.501 143.702 34.1544 141.928 34.1352H141.928C140.228 34.1159 138.708 34.3864 137.361 34.9365C136.01 35.4883 134.956 36.2496 134.178 37.2122L134.175 37.216C133.412 38.142 133.033 39.2055 133.033 40.4274C133.033 41.6407 133.379 42.5766 134.034 43.2842C134.74 44.0274 135.609 44.6274 136.648 45.0813C137.749 45.5334 138.817 45.9058 139.855 46.1993L139.857 46.2L148.068 48.5675C149.026 48.8324 150.119 49.1971 151.346 49.6599C152.631 50.1367 153.87 50.8085 155.063 51.6719C156.29 52.5403 157.299 53.6997 158.09 55.1375C158.904 56.5942 159.294 58.4056 159.294 60.5428C159.294 62.691 158.86 64.6221 157.978 66.3227C157.123 68.0127 155.922 69.4322 154.381 70.5774L154.377 70.58C152.845 71.6982 151.071 72.5422 149.062 73.1164C147.052 73.7108 144.905 74.0064 142.623 74.0064C139.507 74.0064 136.679 73.4768 134.15 72.407Z" fill="#0C0C4F"/>
<defs>
<linearGradient id="paint0_linear_74_766" x1="442.227" y1="52" x2="610.227" y2="52" gradientUnits="userSpaceOnUse">
<stop stop-color="#EC796B"/>
<stop offset="1" stop-color="#D672EF"/>
</linearGradient>
</defs>
</svg>
