<svg xmlns="http://www.w3.org/2000/svg" viewBox="0 0 1920 1918.07"><defs><style>.cls-1{fill:#474747;}</style></defs><g id="EXPORT"><path class="cls-1" d="M177.09,457.37,152,441c.91-1.41,1.81-2.81,2.76-4.22q7.18-11.1,14.73-22A966,966,0,0,1,303.38,259.39q22.74-21.3,46.85-41.14,18.81-15.48,38.45-30,10.4-7.71,21-15.14l4.54-3.16,18.85,27.12a.47.47,0,0,1,.09.12L442,209.9l7.18,10.35a181.61,181.61,0,0,1,25,86c3.62,106.47-83.35,193.51-189.87,190.2a181.85,181.85,0,0,1-80.44-21.56s-.05,0-.07,0l-10.07-6.57Z"/><path class="cls-1" d="M149.63,1117.3A183.72,183.72,0,0,1,93,1151.13s0,0,0,0c-12.33,2.59-23.63,5-33.7,7.07q-11,2.35-20,4.21a.08.08,0,0,1-.07,0c-6.47,1.33-12.06,2.52-16.75,3.5-.23-1.12-.47-2.21-.71-3.33-1.4-6.43-2.74-12.87-4-19.35a950.46,950.46,0,0,1-15.9-125q-1.32-21-1.66-42.16Q0,969.57,0,963c0-1.31,0-2.64,0-4A964.73,964.73,0,0,1,10.28,818.19q1.68-11.38,3.64-22.67c.21-1.31.43-2.59.67-3.9L32.52,795a0,0,0,0,1,0,0l25.1,4.78,34.08,6.47s0,0,.07,0c68.26,25.25,118,90,120.63,166.17A183.37,183.37,0,0,1,149.63,1117.3Z"/><path class="cls-1" d="M707.82,721.19C825.26,777,798.6,990.74,631.68,1035.26c-35.69,9.51-100.76,21.67-143.59,31.83-80.56,17.44-168.17,36.12-246.31,52.66q-16.44,3.45-32.26,6.82a183.56,183.56,0,0,0,74.31-154.13c-2-59.91-33.24-112.73-79.69-144.85l382.8,71.83C688.78,918.67,731.61,837.78,707.82,721.19Z"/><path class="cls-1" d="M1756.54,1491.58q-20.3,31.7-43,61.65a.1.1,0,0,0,0,.07,963.88,963.88,0,0,1-218.15,201.89l-446-653.95a31.06,31.06,0,0,0-38-10.75l-.5.22a30.91,30.91,0,0,0-18.51,34.72l161.26,773.12a969.68,969.68,0,0,1-370.31,3.28L930.45,1126a30.94,30.94,0,0,0-19.13-34.39l-.52-.21A31,31,0,0,0,873,1102.85L439,1764.67a964.08,964.08,0,0,1-232.85-211.75l-.15-.19q-17.19-22.82-33.14-46.7s563.76-385.33,572.75-392c43.4-31.94,61.11-55.9,90.71-101,4.21-6.44,8.25-12.93,12.16-19.61q11.44-19.58,21-40.36,7.41-16.26,13.58-33.23a442.49,442.49,0,0,0,13.25-43.06q3-11.65,5.28-23.56a456.12,456.12,0,0,0,6.1-133.93C904.71,690.46,781.8,113.47,762,20.44A970,970,0,0,1,1140.79,17C1123,110.5,1013.65,683.14,1011.65,697.92a455.35,455.35,0,0,0,5.76,154.85c1.57,7.37,3.3,14.71,5.23,21.94a450.76,450.76,0,0,0,13.92,43.42q6.42,16.93,14.13,33.23a443.2,443.2,0,0,0,21.51,40.12q5.88,9.76,12.25,19.2A454,454,0,0,0,1185.78,1118C1202.93,1131.07,1756.54,1491.58,1756.54,1491.58ZM1920,959c0,3.43,0,6.83-.07,10.24v0a959.77,959.77,0,0,1-18.2,176.85l-155.32-28.91-445.72-81.77c-138-16.63-218.87-223.42-168.07-322.28,1.12-2.19,2.14-4.4,3.38-6.52l31.45-53.87,249.07-378.66v0l74.75-114a965.19,965.19,0,0,1,222.61,205.12c.07.09.14.19.22.28a3.88,3.88,0,0,0,.26.31c.4.55.83,1.12,1.26,1.69a0,0,0,0,1,0,0c.62.84,1.29,1.67,2,2.5a2.92,2.92,0,0,1,.23.29l.12.14C1844.6,532.94,1920,737.2,1920,959ZM1725,709.29a151.09,151.09,0,1,0-151.09,151.09A151.08,151.08,0,0,0,1725,709.29Z"/><path class="cls-1" d="M800.47,844.25c-11.59,39.68-29.62,77.63-51.94,112-26.1,40.19-67.22,68.22-114,78.71-33.39,7.47-41.33,9.71-52.82,12.2C705.44,975.77,690.67,879.3,691.45,868.44c4.88-67.72-80.27-122.64-133.86-162l-241-157.77a178.34,178.34,0,0,0,24.84,2.49,185.59,185.59,0,0,0,36-2.37c89.36-14.68,157-93.65,153.84-187.83a182.18,182.18,0,0,0-2.87-26.62L774.56,688.78C807.75,742.6,815.93,791.28,800.47,844.25Z"/></g></svg>