<svg width="200" height="2.5rem" viewBox="0 0 200 46" fill="none" xmlns="http://www.w3.org/2000/svg">
<g clip-path="url(#clip0_142_4)">
<path fillRule="evenodd" clipRule="evenodd" d="M0.0463867 22.9309C0.0463867 35.3966 10.1517 45.502 22.6175 45.502C35.0832 45.502 45.1892 35.3966 45.1892 22.9309C45.1892 10.4651 35.0832 0.359793 22.6175 0.359793C10.1517 0.359793 0.0463867 10.4651 0.0463867 22.9309Z" fill="#0C0C4F"/>
<path fillRule="evenodd" clipRule="evenodd" d="M12.6616 17.6134L13.2188 15.892C13.332 15.5419 13.6083 15.2695 13.9597 15.162L15.6895 14.6301C15.929 14.557 15.9309 14.2192 15.6934 14.1421L13.9714 13.585C13.6219 13.4717 13.3495 13.1954 13.2414 12.844L12.7101 11.1142C12.637 10.8754 12.2992 10.8728 12.2222 11.111L11.665 12.8323C11.5517 13.1818 11.2754 13.4543 10.924 13.5623L9.19422 14.0936C8.9548 14.1674 8.9522 14.5045 9.19034 14.5816L10.9124 15.1387C11.2618 15.252 11.5343 15.529 11.6423 15.8804L12.1737 17.6095C12.2468 17.8489 12.5846 17.8515 12.6616 17.6134Z" fill="#FAFAFA"/>
<path fillRule="evenodd" clipRule="evenodd" d="M40.0031 16.6115C39.2902 15.8141 38.1771 15.3651 37.0951 15.181C36.0045 15.0041 34.8608 15.0206 33.7842 15.2119C31.6056 15.5804 29.6265 16.4824 27.9003 17.5953C27.0038 18.1414 26.2394 18.7733 25.4474 19.4169C25.0658 19.7424 24.7179 20.089 24.3555 20.4307L23.3655 21.4158C22.2897 22.5403 21.2293 23.5645 20.2034 24.4135C19.1733 25.2585 18.2102 25.9003 17.2611 26.3485C16.3127 26.799 15.2978 27.0639 13.9749 27.1063C12.6637 27.1526 11.1124 26.9159 9.45305 26.5253C7.78477 26.1364 6.03288 25.5821 4.0752 25.1052C4.75828 27.0002 5.78691 28.6749 7.10757 30.2057C8.44371 31.71 10.1122 33.0811 12.2555 33.9826C14.3679 34.9043 17.0224 35.2351 19.5045 34.736C21.9932 34.2571 24.1772 33.1054 25.9425 31.7737C27.7123 30.428 29.1442 28.8954 30.3513 27.3021C30.6845 26.8619 30.8608 26.6155 31.1019 26.2714L31.7685 25.2841C32.2316 24.6734 32.6533 23.9781 33.1119 23.373C34.0108 22.1058 34.8968 20.8401 35.9265 19.674C36.4448 19.0825 36.9913 18.5168 37.6365 17.9731C37.9585 17.7077 38.3059 17.448 38.6911 17.2141C39.0819 16.9617 39.4948 16.7642 40.0031 16.6115Z" fill="url(#paint0_linear_142_4)"/>
<path fillRule="evenodd" clipRule="evenodd" d="M40.0031 16.6114C39.2371 14.6783 37.8128 13.0511 35.9013 11.8503C34.0011 10.6627 31.3622 10.0566 28.7473 10.5733C27.4553 10.8231 26.2037 11.3041 25.1054 11.9447C24.012 12.5827 23.0322 13.3508 22.184 14.1748C21.7606 14.5881 21.3762 15.0193 20.9944 15.453L20.0047 16.7147L18.4762 18.7459C16.5275 21.3591 14.4291 24.4217 10.9855 25.3291C7.60479 26.22 6.13854 25.431 4.0752 25.1051C4.45248 26.0791 4.9198 27.0251 5.55337 27.8572C6.17511 28.7062 6.90948 29.5037 7.82251 30.1871C8.28391 30.5154 8.77105 30.8394 9.31211 31.1143C9.85068 31.3797 10.4315 31.6134 11.0514 31.7894C12.2846 32.1274 13.6729 32.2457 15.0171 32.064C16.3619 31.8846 17.6473 31.4583 18.7709 30.8923C19.9028 30.3314 20.8888 29.6489 21.7693 28.928C23.5194 27.4747 24.8807 25.8688 26.0306 24.2455C26.609 23.4339 27.1341 22.607 27.6196 21.7799L28.1911 20.7951C28.3659 20.5073 28.5426 20.2176 28.7222 19.9479C29.4462 18.8642 30.1545 17.9953 31.0148 17.343C31.8631 16.6739 33.0445 16.1796 34.6231 16.0647C36.1951 15.9485 38.0099 16.1632 40.0031 16.6114Z" fill="#FAFAFA"/>
<path fillRule="evenodd" clipRule="evenodd" d="M31.498 32.6732C31.498 34.0932 32.6498 35.2446 34.0695 35.2446C35.4895 35.2446 36.6395 34.0932 36.6395 32.6732C36.6395 31.2534 35.4895 30.1017 34.0695 30.1017C32.6498 30.1017 31.498 31.2534 31.498 32.6732Z" fill="url(#paint1_linear_142_4)"/>
<path d="M197.313 16.6195V14.023C197.313 13.9201 197.23 13.8366 197.127 13.8366H182.333C182.23 13.8366 182.146 13.9201 182.146 14.023V16.6195H188.159V33.4166H191.3V16.6195H197.313Z" fill="#0C0C4F"/>
<path d="M166.684 13.8366C166.581 13.8366 166.498 13.9201 166.498 14.023V33.2303C166.498 33.3331 166.581 33.4166 166.684 33.4166H179.134C179.237 33.4166 179.32 33.3331 179.32 33.2303V30.6614H169.639V24.5078H177.638V21.8077H169.639V16.5919H178.631V14.023C178.631 13.9201 178.547 13.8366 178.444 13.8366H166.684Z" fill="#0C0C4F"/>
<path d="M159.465 33.3026L159.533 33.4166H161.946C162.049 33.4166 162.132 33.3331 162.132 33.2303V14.023C162.132 13.9201 162.049 13.8366 161.946 13.8366H159.046V27.3968C158.543 26.5953 157.958 25.713 157.292 24.75C156.445 23.4968 155.533 22.2255 154.556 20.9362C153.599 19.6285 152.622 18.3666 151.628 17.1506C150.65 15.9153 149.727 14.8349 148.858 13.9101L148.789 13.8366H146.518C146.414 13.8366 146.331 13.9201 146.331 14.023V33.2303C146.331 33.3331 146.414 33.4166 146.518 33.4166H149.417V18.8901C149.814 19.3583 150.236 19.8773 150.684 20.447C151.288 21.2169 151.912 22.0421 152.554 22.9227L152.555 22.9236L152.556 22.9245C153.197 23.7862 153.839 24.6848 154.481 25.6202L154.482 25.6215L154.483 25.6227C155.143 26.5586 155.776 27.4852 156.382 28.4025L156.382 28.4034L156.383 28.4043C156.988 29.3026 157.547 30.1729 158.06 31.0154L158.06 31.0171L158.062 31.0186C158.594 31.8631 159.062 32.6246 159.465 33.3026Z" fill="#0C0C4F"/>
<path d="M142.537 14.2266L142.608 14.1486C142.717 14.0289 142.632 13.8366 142.47 13.8366H139.031L138.961 13.9175C138.504 14.4471 137.937 15.0694 137.258 15.7848C136.597 16.4826 135.89 17.2174 135.137 17.9889C134.384 18.7602 133.622 19.5315 132.851 20.3028C132.234 20.9051 131.658 21.4602 131.124 21.9681V13.8366H128.169C128.066 13.8366 127.982 13.9201 127.982 14.023V33.2303C127.982 33.3331 128.066 33.4166 128.169 33.4166H131.124V24.5339C131.772 24.9587 132.435 25.4556 133.113 26.0253L133.114 26.0261L133.115 26.0269C133.935 26.7016 134.738 27.4405 135.523 28.2439L135.525 28.2458L135.527 28.2477C136.33 29.032 137.087 29.862 137.798 30.738L137.799 30.7389L137.8 30.7397C138.511 31.5971 139.14 32.4537 139.686 33.3089L139.754 33.4166H143.107C143.25 33.4166 143.34 33.2617 143.269 33.1374L143.229 33.0674C142.726 32.192 142.094 31.2729 141.335 30.31C140.595 29.3486 139.8 28.4059 138.95 27.482C138.1 26.5579 137.232 25.689 136.344 24.8753C135.54 24.1383 134.772 23.5055 134.039 22.9778C134.662 22.3699 135.322 21.7171 136.02 21.0194C136.793 20.2465 137.566 19.4644 138.339 18.6731C139.13 17.8634 139.885 17.0811 140.603 16.3264L140.604 16.3254L140.605 16.3244C141.322 15.5517 141.966 14.8524 142.537 14.2266Z" fill="#0C0C4F"/>
<path fillRule="evenodd" clipRule="evenodd" d="M110.15 13.6899C110.047 13.6899 109.964 13.7733 109.964 13.8763V33.242C109.964 33.3449 110.047 33.4283 110.15 33.4283H112.812V26.3082H116.701C117.138 26.832 117.565 27.3801 117.981 27.9524L117.982 27.9545L117.984 27.9567C118.665 28.849 119.294 29.78 119.871 30.7494L119.872 30.7506L119.872 30.7514C120.395 31.6097 120.851 32.4569 121.241 33.2937L121.304 33.4283H124.454C124.589 33.4283 124.679 33.2894 124.623 33.1666C124.261 32.3726 123.868 31.5954 123.432 30.838C122.84 29.7797 122.19 28.7319 121.482 27.6947C121.078 27.102 120.665 26.5261 120.244 25.9672C121.419 25.608 122.348 24.9584 123.021 24.0155L123.021 24.0148C123.828 22.8738 124.228 21.5318 124.228 19.999C124.228 18.9457 124.045 17.9819 123.675 17.1111C123.303 16.2276 122.743 15.4949 121.997 14.9168C121.257 14.3357 120.344 13.9659 119.27 13.8001C119.019 13.7539 118.76 13.7262 118.494 13.7168C118.233 13.6989 118.006 13.6898 117.812 13.6898C116.996 13.6898 116.179 13.6897 115.362 13.6896C113.625 13.6894 111.888 13.6893 110.15 13.6899ZM121.327 19.999C121.327 20.5077 121.242 21.0083 121.072 21.5017C120.906 21.9756 120.64 22.391 120.273 22.75C119.925 23.0898 119.466 23.3309 118.884 23.4658C118.7 23.5076 118.502 23.5373 118.289 23.5543L118.288 23.5544L118.288 23.5544C118.079 23.5718 117.894 23.5804 117.732 23.5804H112.812V16.4176H117.732C117.894 16.4176 118.079 16.4261 118.288 16.4436L118.293 16.444L118.298 16.4442C118.505 16.4525 118.697 16.4814 118.875 16.5299L118.881 16.5315L118.887 16.5327C119.466 16.6587 119.924 16.8988 120.271 17.2461L120.272 17.247L120.273 17.248C120.639 17.6064 120.905 18.0259 121.072 18.5091V18.5096L121.072 18.5102C121.242 18.9942 121.327 19.4901 121.327 19.999Z" fill="#0C0C4F"/>
<path fillRule="evenodd" clipRule="evenodd" d="M102.975 30.8317L102.975 30.8323L102.976 30.8331C103.252 31.6257 103.547 32.4369 103.86 33.266L103.917 33.4166H107.068C107.198 33.4166 107.288 33.288 107.243 33.1666C106.555 31.2754 105.86 29.3866 105.151 27.503C104.507 25.7732 103.872 24.1352 103.246 22.5888C102.639 21.0425 102.031 19.5694 101.424 18.1696C100.814 16.7469 100.172 15.3384 99.5039 13.9424C99.4727 13.8777 99.4076 13.8366 99.3359 13.8366H96.8225C96.7507 13.8366 96.6853 13.8777 96.6545 13.9424C95.9859 15.3384 95.3445 16.747 94.7347 18.1697C94.127 19.569 93.5105 21.0416 92.8847 22.5876L92.8842 22.5887L92.8839 22.5899C92.2765 24.1357 91.6507 25.7734 91.007 27.5029C90.2979 29.3866 89.603 31.2754 88.9147 33.1666C88.8705 33.288 88.9605 33.4166 89.0899 33.4166H92.1065H92.1656L92.2347 33.3423C92.9625 32.5609 93.7759 31.7943 94.6753 31.0423L94.6762 31.0414L94.677 31.0406C95.5799 30.2697 96.5213 29.5549 97.501 28.8957L97.5033 28.8943L97.5053 28.8929C98.4705 28.2109 99.4419 27.5989 100.419 27.0568L100.42 27.0562L100.422 27.0555C100.774 26.8552 101.12 26.6685 101.461 26.4955L102.121 28.3791L102.121 28.3806C102.415 29.2067 102.7 30.024 102.975 30.8317ZM99.585 21.5439L99.5856 21.5455L99.5862 21.5471C99.8516 22.219 100.117 22.9021 100.382 23.5966C100.363 23.6053 100.342 23.6144 100.322 23.6238C99.3879 24.0492 98.3839 24.5991 97.3105 25.2725C96.2827 25.9171 95.263 26.6174 94.2516 27.3733L94.6799 26.1503C95.2465 24.5606 95.813 23.0257 96.3796 21.5454C96.9005 20.2105 97.443 18.9265 98.007 17.6934C98.5545 18.926 99.0805 20.2095 99.585 21.5439Z" fill="#0C0C4F"/>
<path d="M89.684 16.6195V14.023C89.684 13.9201 89.6005 13.8366 89.4974 13.8366H74.7034C74.6005 13.8366 74.5171 13.9201 74.5171 14.023V16.6195H80.5297V33.2303C80.5297 33.3331 80.6131 33.4166 80.7162 33.4166H83.4848C83.5877 33.4166 83.6711 33.3331 83.6711 33.2303V16.6195H89.684Z" fill="#0C0C4F"/>
<path d="M60.9425 33.1786L60.9416 33.1783C59.8022 32.6926 58.8545 31.9991 58.1031 31.0974L58.1022 31.096L58.1014 31.0954C57.3577 30.182 56.8745 29.1054 56.6502 27.8713C56.6391 27.8095 56.6531 27.7459 56.6894 27.6947C56.7257 27.6435 56.7811 27.6092 56.8431 27.5994L59.3491 27.2045C59.4676 27.1858 59.5811 27.2603 59.6108 27.3766C59.9154 28.5598 60.5422 29.4783 61.4925 30.144C62.4571 30.804 63.5945 31.1374 64.9145 31.1374C65.7708 31.1374 66.5359 31.0051 67.2134 30.7449C67.8985 30.4757 68.4305 30.0983 68.8188 29.6171C69.2008 29.1437 69.3937 28.5835 69.3937 27.9249C69.3937 27.516 69.3211 27.1813 69.1865 26.9124C69.1854 26.9099 69.1842 26.9075 69.1831 26.905C69.0522 26.6185 68.8694 26.3791 68.6336 26.1842C68.6314 26.1823 68.6291 26.1804 68.6271 26.1785C68.3905 25.9673 68.1188 25.7887 67.8111 25.6434C67.4962 25.4946 67.1679 25.372 66.8259 25.2756L66.8228 25.2747L61.8242 23.7901C61.2677 23.6232 60.7297 23.4145 60.2102 23.1639L60.2088 23.1633L60.2071 23.1625C59.6796 22.8987 59.2071 22.5729 58.7905 22.1849L58.7894 22.1836L58.7885 22.1829C58.3662 21.7798 58.0314 21.3007 57.7837 20.7478L57.7831 20.7465C57.5311 20.175 57.4091 19.5106 57.4091 18.7595C57.4091 17.5554 57.7202 16.5156 58.3531 15.6529L58.3534 15.6525C58.9888 14.7893 59.8457 14.1334 60.9154 13.6829C61.9839 13.2331 63.1825 13.0153 64.5077 13.0246C65.8505 13.0338 67.0585 13.2747 68.1271 13.7525C69.2039 14.2209 70.0971 14.897 70.8022 15.7808C71.5182 16.6665 71.9956 17.7234 72.2382 18.9457C72.2505 19.0072 72.2374 19.0711 72.2019 19.1228C72.1665 19.1745 72.1116 19.2098 72.0499 19.2205L69.4759 19.67C69.4148 19.6806 69.3522 19.6665 69.3016 19.6308C69.2508 19.5951 69.2165 19.5407 69.2062 19.4796C69.0762 18.7169 68.7876 18.0701 68.3436 17.5323L68.3411 17.5292C67.9022 16.9785 67.3519 16.5565 66.6862 16.2625L66.6839 16.2615C66.0168 15.9583 65.2819 15.8009 64.4762 15.7921H64.4759C63.7036 15.7833 63.0134 15.9062 62.4014 16.1561C61.7877 16.4068 61.3088 16.7527 60.9556 17.1899L60.9542 17.1917C60.6077 17.6123 60.4354 18.0955 60.4354 18.6506C60.4354 19.2017 60.5925 19.6269 60.8899 19.9483C61.2108 20.286 61.6054 20.5586 62.0774 20.7648C62.5777 20.9701 63.0631 21.1393 63.5342 21.2727L63.5354 21.273L67.2657 22.3485C67.7005 22.4689 68.1971 22.6345 68.7548 22.8448C69.3385 23.0614 69.9014 23.3666 70.4431 23.7588C71.0008 24.1533 71.4588 24.68 71.8185 25.3331C72.1882 25.9949 72.3654 26.8178 72.3654 27.7887C72.3654 28.7646 72.1682 29.6417 71.7677 30.4146C71.3791 31.1823 70.8334 31.8271 70.1334 32.3474L70.1317 32.3486C69.4357 32.8566 68.6297 33.24 67.7171 33.5009C66.8039 33.7709 65.8285 33.9049 64.7919 33.9049C63.3762 33.9049 62.0917 33.6643 60.9425 33.1786Z" fill="#0C0C4F"/>
</g>
<defs>
<linearGradient id="paint0_linear_142_4" x1="39.8111" y1="15.9332" x2="-18.9041" y2="46.4814" gradientUnits="userSpaceOnUse">
<stop stop-color="#EC796B"/>
<stop offset="1" stop-color="#D672EF"/>
</linearGradient>
<linearGradient id="paint1_linear_142_4" x1="36.6378" y1="30.8694" x2="27.2675" y2="31.7477" gradientUnits="userSpaceOnUse">
<stop stop-color="#EC796B"/>
<stop offset="1" stop-color="#D672EF"/>
</linearGradient>
<clipPath id="clip0_142_4">
<rect width="200" height="45.4286" fill="white" transform="translate(0 0.285713)"/>
</clipPath>
</defs>
</svg>
