<svg width="137" height="22" viewBox="0 0 137 22" fill="none" xmlns="http://www.w3.org/2000/svg">
<g clip-path="url(#clip0_10_17)">
<path d="M1.99364 5.35235L1.70822 5.16754L1.73961 5.12045C1.79313 5.03697 1.84879 4.9542 1.90516 4.87285C2.34517 4.2377 2.85155 3.6512 3.41572 3.12325C3.5865 2.96341 3.76227 2.80905 3.94303 2.66016C4.08574 2.54457 4.22845 2.43111 4.37544 2.32265C4.45393 2.26486 4.53242 2.20777 4.61162 2.15212L4.66299 2.11644L4.87706 2.42184L4.97624 2.56454L5.05758 2.68085C5.28495 3.07001 5.37905 3.52275 5.32557 3.97028C5.27209 4.4178 5.07396 4.83563 4.76129 5.16024C4.44862 5.48486 4.03852 5.69852 3.59332 5.76874C3.14811 5.83896 2.69215 5.76191 2.29475 5.54929L2.1813 5.47794L1.99364 5.35235ZM2.39179 11.1506C2.37603 10.7397 2.23883 10.3428 1.99752 10.0099C1.75621 9.67703 1.42163 9.42317 1.03606 9.2804L0.652891 9.20904L0.367474 9.15482L0.165542 9.11628C0.165542 9.13127 0.160547 9.14554 0.158406 9.16052C0.143422 9.24544 0.129865 9.33035 0.117021 9.41597C0.0393829 9.94043 0.000271321 10.4699 0 11L0 11.0443C0 11.0935 0 11.1435 0 11.192C0 11.3509 0.00618403 11.509 0.0185521 11.6665C0.0474452 12.139 0.107994 12.6091 0.199792 13.0736C0.213349 13.1449 0.228333 13.2163 0.244031 13.2919L0.252594 13.329L0.440969 13.2898L0.666448 13.242L1.04534 13.1628C1.27915 13.0751 1.49524 12.9461 1.68324 12.7817C1.91545 12.5799 2.09959 12.3286 2.22218 12.0464C2.34477 11.7642 2.40272 11.4581 2.39179 11.1506ZM6.6074 10.3286L2.29832 9.52015C2.56948 9.70678 2.79221 9.9554 2.948 10.2454C3.1038 10.5354 3.18816 10.8583 3.19409 11.1874C3.20002 11.5166 3.12735 11.8424 2.9821 12.1378C2.83686 12.4332 2.62323 12.6897 2.35897 12.8859L2.72216 12.8089C3.60124 12.6233 4.58807 12.4128 5.49498 12.2166C5.97662 12.1017 6.70801 11.9655 7.11116 11.8599C8.99063 11.3604 9.29031 8.95288 7.96741 8.32425C8.23641 9.63503 7.75406 10.5455 6.6074 10.3286ZM13.3489 12.7896C12.9048 12.4521 12.5192 12.044 12.2073 11.5816C12.1595 11.5102 12.1131 11.4389 12.0688 11.3675C11.9807 11.2211 11.8999 11.0704 11.827 10.9158C11.7689 10.7936 11.7159 10.6687 11.6678 10.5412C11.6073 10.3811 11.5549 10.2179 11.5109 10.0525C11.4894 9.97111 11.4702 9.88905 11.4523 9.80557C11.3795 9.45662 11.3436 9.10098 11.3453 8.74453C11.3453 8.51567 11.3606 8.28707 11.391 8.06024C11.4131 7.89399 12.644 1.44714 12.8445 0.394665C11.4344 0.127312 9.98539 0.140405 8.58034 0.433196C8.80368 1.48068 10.1872 7.97604 10.2215 8.30142C10.2726 8.80475 10.2486 9.31289 10.1501 9.80913C10.133 9.89833 10.113 9.9868 10.0909 10.0739C10.0488 10.2394 9.99886 10.4007 9.94178 10.5591C9.89421 10.6861 9.84307 10.8107 9.78836 10.933C9.71758 11.0883 9.639 11.24 9.5529 11.3875C9.50866 11.4622 9.46299 11.5357 9.4159 11.608C9.08267 12.116 8.88359 12.3857 8.39482 12.7454C8.2935 12.8167 1.94654 17.1579 1.94654 17.1579C2.06642 17.3368 2.19081 17.5121 2.31972 17.6838C3.057 18.6165 3.94239 19.4218 4.94056 20.0677L9.82832 12.6191C9.87326 12.5508 9.94074 12.5005 10.019 12.4769C10.0972 12.4533 10.1813 12.4579 10.2564 12.4899H10.2622C10.3371 12.5196 10.3994 12.5744 10.4384 12.645C10.4775 12.7155 10.4908 12.7974 10.4762 12.8766L8.81795 21.614C10.1972 21.8694 11.6127 21.8568 12.9872 21.5769L11.1719 12.8717C11.1557 12.7924 11.1677 12.71 11.2057 12.6386C11.2437 12.5673 11.3055 12.5114 11.3803 12.4806H11.3853C11.4596 12.4482 11.5428 12.4425 11.6209 12.4645C11.6989 12.4865 11.7669 12.5348 11.8134 12.6012L16.8346 19.9635C17.7658 19.3374 18.5943 18.5708 19.2906 17.6909C19.4604 17.4661 19.6224 17.2342 19.7744 16.9966C19.7744 16.9952 13.5423 12.9366 13.3489 12.7896ZM19.3427 4.37409L19.3206 4.34626L19.3063 4.32699C18.9746 3.9063 18.6118 3.51108 18.221 3.14465C17.7798 2.72985 17.3045 2.35273 16.8003 2.01726L15.9591 3.30163L13.1427 7.55291L12.786 8.15943C12.7717 8.18297 12.7603 8.20795 12.7481 8.23078C12.1773 9.3439 13.0864 11.6715 14.6397 11.8584L19.6574 12.7796L21.4062 13.1064C21.5358 12.4503 21.6044 11.7836 21.611 11.1149C21.611 11.0764 21.611 11.0386 21.611 11C21.6159 8.59971 20.8166 6.26694 19.3405 4.37409H19.3427ZM17.7201 9.88905C17.3836 9.88905 17.0547 9.78927 16.7749 9.60232C16.4952 9.41537 16.2772 9.14965 16.1484 8.83878C16.0197 8.5279 15.9861 8.18584 16.0517 7.85584C16.1174 7.52584 16.2795 7.22274 16.5175 6.98487C16.7555 6.74699 17.0586 6.58504 17.3887 6.51948C17.7187 6.45393 18.0607 6.48772 18.3716 6.61658C18.6824 6.74544 18.948 6.96358 19.1348 7.24341C19.3217 7.52325 19.4213 7.85221 19.4212 8.18868C19.4212 8.41222 19.3771 8.63356 19.2915 8.84004C19.2058 9.04653 19.0803 9.2341 18.9221 9.39203C18.7639 9.54996 18.5762 9.67515 18.3695 9.76044C18.1629 9.84572 17.9415 9.88943 17.718 9.88905H17.7201ZM8.71948 7.95749L5.9488 3.96737C6.00419 4.27166 5.99081 4.58449 5.90963 4.88294C5.82846 5.18139 5.68155 5.45791 5.47966 5.69222C5.27777 5.92654 5.02602 6.11272 4.74286 6.23713C4.45969 6.36155 4.15227 6.42104 3.84314 6.41125C3.74956 6.4086 3.65631 6.39906 3.56414 6.38271L6.2756 8.15943C6.87925 8.60253 7.83754 9.22046 7.7826 9.98252C7.77404 10.1053 7.94029 11.1913 6.54746 11.9947C6.67661 11.9669 6.76652 11.9412 7.14184 11.8577C7.66921 11.7412 8.13015 11.4232 8.42621 10.9715C8.68105 10.5817 8.8779 10.157 9.0106 9.71066C9.18542 9.11129 9.09337 8.56329 8.71948 7.95749ZM31.8589 19.2586H34.8287L34.8729 11.1085H39.0743L39.0835 19.2586H42.0526V11.1085C42.0526 9.73707 40.6968 8.53403 39.0714 8.53403H34.8729L34.8515 2.83426H31.8589V19.2586ZM55.9053 13.8699C55.9053 14.9688 55.6579 15.9508 55.1632 16.8161C54.6722 17.677 53.9463 18.3804 53.0704 18.844C52.1708 19.3316 51.1441 19.5749 49.99 19.574C48.845 19.574 47.8258 19.3306 46.9325 18.844C46.0612 18.3768 45.3369 17.6767 44.8404 16.8218C44.3371 15.9608 44.0859 14.9768 44.0869 13.8699C44.0869 12.771 44.3342 11.7909 44.829 10.9294C45.3215 10.0707 46.0481 9.36989 46.9239 8.90864C47.8244 8.42153 48.8472 8.17798 49.9922 8.17798C51.1372 8.17798 52.1623 8.42153 53.0675 8.90864C53.9448 9.36947 54.6727 10.0706 55.166 10.9301C55.6603 11.7911 55.9077 12.771 55.9081 13.8699H55.9053ZM52.8656 13.8699C52.8656 12.9737 52.604 12.2428 52.0807 11.6772C51.5574 11.1116 50.8617 10.8293 49.9936 10.8302C49.144 10.8302 48.4542 11.1156 47.9243 11.6865C47.3944 12.2573 47.1294 12.9858 47.1294 13.872C47.1294 14.7526 47.3963 15.483 47.93 16.0633C48.4637 16.6437 49.1516 16.9341 49.9936 16.9346C50.8427 16.9346 51.5341 16.6441 52.0678 16.0633C52.6016 15.4825 52.8684 14.7514 52.8684 13.8699H52.8656ZM60.8936 8.53403C59.2675 8.53403 57.9125 9.68569 57.9125 11.1085V19.2586H60.9051V14.0461C60.9051 13.1028 60.8922 11.1092 60.8922 11.1092C60.8922 11.1092 64.3229 11.0842 64.4471 11.0999V8.53118L60.8936 8.53403ZM73.1587 19.2372C74.7171 19.2372 76.1556 17.9578 76.1406 16.6627L76.127 8.52833H73.158V16.6656H69.0908L69.1108 8.53118H66.1203L66.1118 16.6691C66.1118 17.9628 67.4675 19.2436 69.0929 19.2436L73.1587 19.2372ZM82.6488 19.5718C84.0202 19.5718 85.121 19.2464 85.9511 18.5957C86.7812 17.9449 87.1957 17.0789 87.1948 15.9977C87.1948 15.2332 86.9726 14.5765 86.5283 14.0276C86.084 13.4786 85.3905 13.0909 84.4477 12.8645L82.3905 12.385C81.9852 12.2899 81.687 12.1788 81.4957 12.0518C81.3045 11.9248 81.2094 11.7086 81.2103 11.4032C81.2038 11.259 81.2336 11.1156 81.2969 10.9859C81.3602 10.8562 81.4551 10.7446 81.5728 10.6611C81.814 10.4856 82.1334 10.3978 82.5311 10.3978C82.9911 10.3978 83.3574 10.5108 83.6299 10.7367C83.7644 10.8478 83.8727 10.9871 83.9474 11.1447C84.0222 11.3022 84.0614 11.4743 84.0623 11.6486H86.9879C86.9565 10.6126 86.5376 9.77488 85.7313 9.13555C84.925 8.49622 83.8825 8.17655 82.6039 8.17655C81.2948 8.17655 80.2368 8.50002 79.43 9.14697C78.6233 9.79391 78.2189 10.6435 78.217 11.6957C78.217 12.4749 78.4606 13.1354 78.9477 13.6772C79.4348 14.2191 80.1888 14.6106 81.2096 14.8517L82.9849 15.2592C83.2822 15.3155 83.5659 15.4287 83.8204 15.5924C84.0274 15.7351 84.1308 15.9763 84.1308 16.3116C84.1364 16.4657 84.1015 16.6184 84.0297 16.7548C83.9578 16.8911 83.8515 17.0062 83.7213 17.0887C83.4487 17.2718 83.0824 17.3634 82.6224 17.3634C82.1315 17.3634 81.7272 17.2485 81.4094 17.0188C81.2549 16.9098 81.1289 16.7652 81.042 16.5973C80.9551 16.4294 80.9098 16.2431 80.9099 16.054H77.9637C78.0417 17.1225 78.5036 17.9759 79.3494 18.6142C80.1952 19.2526 81.2948 19.5728 82.6481 19.5747L82.6488 19.5718ZM132.454 19.5718C133.825 19.5718 134.926 19.2464 135.756 18.5957C136.586 17.9449 137.001 17.0789 137 15.9977C137 15.2332 136.778 14.5765 136.334 14.0276C135.889 13.4786 135.196 13.0909 134.253 12.8645L132.196 12.385C131.79 12.2899 131.492 12.1788 131.301 12.0518C131.11 11.9248 131.015 11.7086 131.016 11.4032C131.009 11.259 131.039 11.1156 131.102 10.9859C131.165 10.8562 131.26 10.7446 131.378 10.6611C131.619 10.4856 131.939 10.3978 132.336 10.3978C132.796 10.3978 133.163 10.5108 133.435 10.7367C133.57 10.8478 133.678 10.9871 133.753 11.1447C133.827 11.3022 133.867 11.4743 133.868 11.6486H136.793C136.762 10.6126 136.343 9.77488 135.537 9.13555C134.73 8.49622 133.688 8.17655 132.41 8.17655C131.101 8.17655 130.042 8.50002 129.235 9.14697C128.428 9.79391 128.024 10.6435 128.022 11.6957C128.022 12.4749 128.266 13.1354 128.753 13.6772C129.24 14.2191 129.994 14.6106 131.015 14.8517L132.79 15.2592C133.088 15.3157 133.372 15.4288 133.626 15.5924C133.833 15.7351 133.936 15.9763 133.936 16.3116C133.942 16.4657 133.907 16.6185 133.835 16.7549C133.763 16.8912 133.657 17.0063 133.526 17.0887C133.254 17.2718 132.888 17.3634 132.428 17.3634C131.937 17.3634 131.532 17.2485 131.215 17.0188C131.06 16.9098 130.934 16.7652 130.847 16.5973C130.76 16.4294 130.715 16.2431 130.715 16.054H127.769C127.847 17.1225 128.309 17.9759 129.155 18.6142C130 19.2526 131.1 19.5728 132.453 19.5747L132.454 19.5718ZM95.382 19.2557H98.3746V2.83426H95.382V19.2557ZM112.327 8.53118V19.2343H109.346V17.8786C108.967 18.4197 108.448 18.8464 107.843 19.1123C107.152 19.4205 106.403 19.5758 105.646 19.5675C104.657 19.5675 103.778 19.3359 103.01 18.8725C102.237 18.4029 101.614 17.7215 101.216 16.9089C100.788 16.0631 100.574 15.0791 100.574 13.957C100.574 12.811 100.796 11.7997 101.239 10.923C101.657 10.0755 102.313 9.36856 103.127 8.88938C103.942 8.40988 104.867 8.17037 105.904 8.17084C106.699 8.17084 107.408 8.30499 108.032 8.57328C108.655 8.84228 108.959 9.2333 109.347 9.74706V8.53403L112.327 8.53118ZM109.259 13.8442C109.259 12.9314 109 12.2004 108.482 11.6515C107.964 11.1025 107.28 10.8278 106.43 10.8274C105.565 10.8274 104.879 11.1059 104.373 11.6629C103.866 12.22 103.613 12.9471 103.613 13.8442C103.613 14.7395 103.872 15.4661 104.39 16.0241C104.908 16.5821 105.58 16.8606 106.407 16.8596C107.256 16.8596 107.944 16.5849 108.47 16.0355C108.996 15.4861 109.258 14.7566 109.257 13.8471L109.259 13.8442ZM126.7 13.867C126.7 14.9816 126.478 15.9751 126.034 16.8475C125.622 17.6866 124.974 18.3873 124.17 18.864C123.371 19.3359 122.461 19.5716 121.441 19.5711C119.307 19.5761 118.359 18.9667 117.952 18.0177V19.2372L114.999 19.2564V2.83426H117.968V9.50945C118.358 9.06396 118.855 8.72408 119.412 8.52119C120.053 8.28409 120.733 8.16749 121.416 8.17726C122.438 8.17726 123.351 8.41273 124.158 8.88367C124.966 9.35674 125.618 10.0559 126.034 10.8951C126.478 11.7633 126.699 12.7549 126.698 13.8699L126.7 13.867ZM123.661 13.8442C123.661 12.9471 123.402 12.22 122.884 11.6629C122.366 11.1059 121.682 10.8274 120.832 10.8274C119.983 10.8274 119.301 11.1021 118.786 11.6515C118.271 12.2009 118.014 12.9318 118.015 13.8442C118.015 14.7552 118.276 15.4856 118.8 16.0355C119.323 16.5854 120.011 16.8601 120.863 16.8596C121.69 16.8596 122.362 16.5811 122.88 16.0241C123.399 15.467 123.658 14.7414 123.657 13.8471L123.661 13.8442Z" fill="#474747"/>
</g>
<defs>
<clipPath id="clip0_10_17">
<rect width="137" height="21.5932" fill="white" transform="translate(0 0.20343)"/>
</clipPath>
</defs>
</svg>
